<svg version="1.1" preserveAspectRatio="none" xmlns="http://www.w3.org/2000/svg" width="500" height="500" viewBox="0 0 500 500"><rect width="100%" height="100%" fill="#FFFFFF" fill-opacity="1"/><svg viewBox="-51.0425 97.08 549.3849 84" width="333" height="50.915123440778956" x="83.5px" y="224.5424px" xmlns="http://www.w3.org/2000/svg" xmlns:xlink="http://www.w3.org/1999/xlink" preserveAspectRatio="none"><defs></defs><style>.background {fill:#FFFFFF;fill-opacity:1;}.companyName {fill:#0C0C0C;fill-opacity:1;}.icon3 {fill:#6F5CF3;fill-opacity:1;}.icon3-str {stroke:#6F5CF3;stroke-opacity:1;}.shape {fill:#F55649;fill-opacity:1;}.text-str {stroke:#0C0C0C;stroke-opacity:1;}</style><g opacity="1" transform="rotate(0 35.9574 97.08)">
<svg width="462.385" height="84" x="35.9574" y="97.08" version="1.1" preserveAspectRatio="none" viewBox="0 0 462.385 84">
  <defs><rect x="0" y="0" width="462.385" height="84" rx="0px" ry="0px" id="id-B7crM0kCi1709095645506"></rect></defs><use class="companyName text-str" style="stroke-width:0;" xlink:href="#id-B7crM0kCi1709095645506"></use>
</svg>
</g><g opacity="1" transform="rotate(0 65.9574 127.08)">
<svg width="402.385" height="24" x="65.9574" y="127.08" version="1.1" preserveAspectRatio="none" viewBox="4.3359 -32.4023 550.1368 32.8125">
  <g transform="matrix(1 0 0 1 0 0)" class="background"><path id="id-D6z1nYkh21" d="M4.34 0L4.34-30.53L20.43-30.53Q23.95-30.53 26.52-29.77Q29.10-29.00 30.80-27.57Q32.50-26.13 33.33-24.06Q34.16-21.99 34.16-19.39L34.16-19.39Q34.16-16.95 33.34-14.88Q32.52-12.81 30.83-11.30Q29.14-9.79 26.56-8.94Q23.98-8.09 20.47-8.09L20.47-8.09L10.53-8.11L10.53 0L4.34 0ZM10.53-13.46L20.59-13.46Q22.34-13.46 23.66-13.88Q24.98-14.30 25.87-15.07Q26.76-15.84 27.20-16.94Q27.64-18.05 27.64-19.39L27.64-19.39Q27.64-22.11 25.87-23.62Q24.10-25.14 20.59-25.14L20.59-25.14L10.53-25.14L10.53-13.46Z M43.24-26.19L43.24-26.19Q42.38-26.19 41.69-26.44Q41.00-26.68 40.51-27.10Q40.02-27.52 39.76-28.08Q39.49-28.63 39.49-29.26L39.49-29.26Q39.49-29.90 39.76-30.46Q40.02-31.02 40.51-31.43Q41.00-31.84 41.69-32.08Q42.38-32.32 43.24-32.32L43.24-32.32Q44.12-32.32 44.81-32.08Q45.51-31.84 46.00-31.43Q46.48-31.02 46.75-30.46Q47.01-29.90 47.01-29.26L47.01-29.26Q47.01-28.63 46.75-28.08Q46.48-27.52 46.00-27.10Q45.51-26.68 44.81-26.44Q44.12-26.19 43.24-26.19ZM40.35 0L40.35-23.05L46.13-23.05L46.13 0L40.35 0Z M50.33 0L59.51-11.52L49.98-23.07L57.36-23.07L63.14-16.04L68.63-23.07L75.84-23.07L66.88-11.54L76.41 0L69.02 0L63.07-7.21L57.54 0L50.33 0Z M79.00-11.60L79.00-11.60Q79.00-13.95 79.96-16.08Q80.92-18.22 82.71-19.86Q84.51-21.50 87.12-22.48Q89.73-23.46 93.05-23.46L93.05-23.46Q96.35-23.46 98.99-22.47Q101.64-21.48 103.49-19.77Q105.33-18.05 106.32-15.72Q107.30-13.40 107.30-10.74L107.30-10.74Q107.30-10.41 107.29-10.03Q107.29-9.65 107.25-9.34L107.25-9.34L85.45-9.34Q85.82-8.30 86.65-7.44Q87.48-6.58 88.73-5.96Q89.98-5.33 91.62-4.99Q93.26-4.65 95.25-4.65L95.25-4.65Q97.25-4.65 99.22-5.07Q101.19-5.49 102.99-6.13L102.99-6.13L104.94-1.72Q103.81-1.19 102.65-0.79Q101.48-0.39 100.22-0.13Q98.96 0.14 97.59 0.27Q96.21 0.41 94.69 0.41L94.69 0.41Q90.80 0.41 87.87-0.53Q84.94-1.46 82.97-3.09Q81.00-4.71 80-6.89Q79.00-9.08 79.00-11.60ZM85.45-13.85L101.17-13.85Q100.86-14.80 100.21-15.63Q99.55-16.46 98.57-17.08Q97.60-17.70 96.31-18.05Q95.02-18.40 93.48-18.40L93.48-18.40Q91.84-18.40 90.49-18.03Q89.14-17.66 88.13-17.03Q87.11-16.41 86.44-15.59Q85.76-14.77 85.45-13.85L85.45-13.85Z M113.67 0L113.67-32.40L119.45-32.40L119.45 0L113.67 0Z M127.58 0L127.58-30.53L143.67-30.53Q147.19-30.53 149.77-29.77Q152.34-29.00 154.04-27.57Q155.74-26.13 156.57-24.06Q157.40-21.99 157.40-19.39L157.40-19.39Q157.40-16.95 156.58-14.88Q155.76-12.81 154.07-11.30Q152.38-9.79 149.80-8.94Q147.23-8.09 143.71-8.09L143.71-8.09L133.77-8.11L133.77 0L127.58 0ZM133.77-13.46L143.83-13.46Q145.59-13.46 146.90-13.88Q148.22-14.30 149.11-15.07Q150-15.84 150.44-16.94Q150.88-18.05 150.88-19.39L150.88-19.39Q150.88-22.11 149.11-23.62Q147.34-25.14 143.83-25.14L143.83-25.14L133.77-25.14L133.77-13.46Z M163.44-11.00L163.44-23.07L169.20-23.07L169.20-11.82Q169.20-10.21 169.55-8.90Q169.90-7.58 170.75-6.64Q171.60-5.70 173.02-5.19Q174.43-4.67 176.54-4.67L176.54-4.67Q177.54-4.67 178.56-4.88Q179.59-5.10 180.53-5.48Q181.46-5.86 182.28-6.39Q183.09-6.91 183.67-7.54L183.67-7.54L183.67-23.07L189.45-23.07L189.45 0L183.67 0L183.67-1.97Q181.54-0.70 179.39-0.16Q177.25 0.39 175.31 0.39L175.31 0.39Q172.15 0.39 169.89-0.37Q167.64-1.13 166.20-2.59Q164.77-4.04 164.10-6.16Q163.44-8.28 163.44-11.00L163.44-11.00Z M196.95 0L196.95-32.40L202.73-32.40L202.73 0L196.95 0Z M208.55-2.70L211.05-7.07Q213.40-5.66 216.21-5Q219.02-4.34 221.97-4.34L221.97-4.34Q223.96-4.34 225.29-4.61Q226.62-4.88 227.42-5.31Q228.22-5.74 228.55-6.29Q228.89-6.84 228.89-7.40L228.89-7.40Q228.89-8.22 228.17-8.81Q227.46-9.39 225.82-9.39L225.82-9.39Q225.06-9.39 224.18-9.30Q223.30-9.20 222.33-9.09Q221.37-8.98 220.32-8.89Q219.28-8.79 218.20-8.79L218.20-8.79Q215.86-8.79 214.21-9.30Q212.56-9.80 211.52-10.68Q210.49-11.56 210.02-12.76Q209.55-13.96 209.55-15.35L209.55-15.35Q209.55-17.11 210.37-18.59Q211.19-20.08 212.71-21.16Q214.24-22.25 216.40-22.85Q218.55-23.46 221.21-23.46L221.21-23.46Q222.60-23.46 224.11-23.29Q225.63-23.13 227.09-22.85Q228.55-22.58 229.90-22.22Q231.25-21.86 232.29-21.45L232.29-21.45L230.47-16.95Q228.26-17.77 226.06-18.25Q223.87-18.73 221.54-18.73L221.54-18.73Q219.92-18.73 218.80-18.49Q217.68-18.24 216.97-17.84Q216.27-17.44 215.95-16.92Q215.63-16.41 215.63-15.84L215.63-15.84Q215.63-15.43 215.79-15.10Q215.96-14.77 216.34-14.52Q216.72-14.28 217.33-14.15Q217.95-14.02 218.85-14.02L218.85-14.02Q219.67-14.02 220.59-14.12Q221.50-14.22 222.50-14.33Q223.50-14.43 224.56-14.53Q225.63-14.63 226.74-14.63L226.74-14.63Q228.81-14.63 230.36-14.14Q231.91-13.65 232.93-12.77Q233.95-11.89 234.45-10.70Q234.96-9.51 234.96-8.11L234.96-8.11Q234.96-6.29 234.12-4.73Q233.28-3.16 231.62-2.02Q229.96-0.88 227.49-0.23Q225.02 0.41 221.78 0.41L221.78 0.41Q219.79 0.41 217.93 0.17Q216.07-0.08 214.39-0.50Q212.71-0.92 211.24-1.48Q209.77-2.05 208.55-2.70L208.55-2.70Z M239.06-11.60L239.06-11.60Q239.06-13.95 240.02-16.08Q240.98-18.22 242.77-19.86Q244.57-21.50 247.18-22.48Q249.79-23.46 253.11-23.46L253.11-23.46Q256.41-23.46 259.05-22.47Q261.70-21.48 263.54-19.77Q265.39-18.05 266.38-15.72Q267.36-13.40 267.36-10.74L267.36-10.74Q267.36-10.41 267.35-10.03Q267.34-9.65 267.30-9.34L267.30-9.34L245.51-9.34Q245.88-8.30 246.71-7.44Q247.54-6.58 248.79-5.96Q250.04-5.33 251.68-4.99Q253.32-4.65 255.31-4.65L255.31-4.65Q257.30-4.65 259.28-5.07Q261.25-5.49 263.05-6.13L263.05-6.13L265-1.72Q263.87-1.19 262.71-0.79Q261.54-0.39 260.28-0.13Q259.02 0.14 257.65 0.27Q256.27 0.41 254.75 0.41L254.75 0.41Q250.86 0.41 247.93-0.53Q245-1.46 243.03-3.09Q241.05-4.71 240.06-6.89Q239.06-9.08 239.06-11.60ZM245.51-13.85L261.23-13.85Q260.92-14.80 260.26-15.63Q259.61-16.46 258.63-17.08Q257.66-17.70 256.37-18.05Q255.08-18.40 253.54-18.40L253.54-18.40Q251.89-18.40 250.55-18.03Q249.20-17.66 248.18-17.03Q247.17-16.41 246.49-15.59Q245.82-14.77 245.51-13.85L245.51-13.85Z M286.80 0L286.80-30.53L293.03-30.53L293.03 0L286.80 0Z M300.20 0L300.20-23.05L305.98-23.05L305.98-21.09Q308.28-22.40 310.38-22.93Q312.48-23.46 314.49-23.46L314.49-23.46Q317.13-23.46 319.38-22.69Q321.62-21.91 323.26-20.39Q324.90-18.87 325.83-16.59Q326.76-14.32 326.76-11.33L326.76-11.33L326.76 0L321.00 0L321.00-10.39Q321.00-12.29 320.46-13.78Q319.92-15.27 318.92-16.30Q317.91-17.32 316.47-17.86Q315.04-18.40 313.26-18.40L313.26-18.40Q312.32-18.40 311.34-18.20Q310.35-18.01 309.40-17.65Q308.46-17.29 307.58-16.75Q306.70-16.21 305.98-15.53L305.98-15.53L305.98 0L300.20 0Z M332.46-11.52L332.46-11.52Q332.46-14.00 333.47-16.17Q334.47-18.34 336.34-19.96Q338.20-21.58 340.85-22.52Q343.50-23.46 346.80-23.46L346.80-23.46Q350.10-23.46 352.74-22.52Q355.39-21.58 357.26-19.96Q359.12-18.34 360.13-16.17Q361.13-14.00 361.13-11.52L361.13-11.52Q361.13-9.04 360.13-6.88Q359.12-4.71 357.26-3.09Q355.39-1.46 352.74-0.53Q350.10 0.41 346.80 0.41L346.80 0.41Q343.50 0.41 340.85-0.53Q338.20-1.46 336.34-3.09Q334.47-4.71 333.47-6.88Q332.46-9.04 332.46-11.52ZM338.54-11.52L338.54-11.52Q338.54-10.14 339.09-8.90Q339.65-7.66 340.71-6.71Q341.78-5.76 343.31-5.21Q344.84-4.65 346.80-4.65L346.80-4.65Q348.75-4.65 350.28-5.21Q351.82-5.76 352.88-6.71Q353.95-7.66 354.50-8.90Q355.06-10.14 355.06-11.52L355.06-11.52Q355.06-12.91 354.50-14.16Q353.95-15.41 352.88-16.36Q351.82-17.30 350.28-17.86Q348.75-18.42 346.80-18.42L346.80-18.42Q344.84-18.42 343.31-17.86Q341.78-17.30 340.71-16.36Q339.65-15.41 339.09-14.16Q338.54-12.91 338.54-11.52Z M374.71 0L363.79-23.07L370.49-23.07L376.48-9.20L378.05-5.31L379.61-9.20L385.61-23.07L392.30-23.07L381.39 0L374.71 0Z M395.25-7.27L395.25-7.27Q395.25-8.93 395.98-10.29Q396.70-11.66 398.14-12.65Q399.59-13.63 401.75-14.17Q403.91-14.71 406.78-14.71L406.78-14.71Q408.91-14.71 411.26-14.39Q413.61-14.08 416.11-13.44L416.11-13.44Q416.02-14.53 415.45-15.46Q414.88-16.39 413.88-17.06Q412.87-17.73 411.46-18.11Q410.04-18.48 408.24-18.48L408.24-18.48Q407.27-18.48 406.09-18.36Q404.92-18.24 403.67-18.01Q402.42-17.77 401.20-17.42Q399.98-17.07 398.93-16.58L398.93-16.58L397.17-21.33Q398.48-21.80 399.97-22.19Q401.46-22.58 403.03-22.86Q404.59-23.14 406.15-23.30Q407.71-23.46 409.18-23.46L409.18-23.46Q415.64-23.46 418.79-20.16Q421.93-16.86 421.93-10.04L421.93-10.04L421.93 0L416.15 0L416.15-2.17Q415.25-1.64 414.19-1.17Q413.13-0.70 411.88-0.35Q410.63 0 409.19 0.21Q407.75 0.41 406.15 0.41L406.15 0.41Q403.46 0.41 401.42-0.18Q399.38-0.76 398.01-1.80Q396.64-2.83 395.95-4.23Q395.25-5.63 395.25-7.27ZM401.35-7.46L401.35-7.46Q401.35-6.89 401.64-6.38Q401.93-5.86 402.58-5.46Q403.22-5.06 404.23-4.81Q405.23-4.57 406.66-4.57L406.66-4.57Q408.18-4.57 409.61-4.84Q411.04-5.12 412.27-5.57Q413.50-6.02 414.49-6.60Q415.49-7.19 416.15-7.81L416.15-7.81L416.15-8.83Q414.82-9.20 413.53-9.45Q412.23-9.71 411.04-9.85Q409.86-10 408.82-10.06Q407.77-10.12 406.99-10.12L406.99-10.12Q405.37-10.12 404.30-9.90Q403.22-9.69 402.56-9.33Q401.89-8.96 401.62-8.48Q401.35-7.99 401.35-7.46Z M433.05 0L433.05-18.71L427.48-18.71L427.48-23.05L433.05-23.05L433.05-30.21L438.83-30.21L438.83-23.05L444.39-23.05L444.39-18.71L438.83-18.71L438.83 0L433.05 0Z M452.58-26.19L452.58-26.19Q451.72-26.19 451.03-26.44Q450.33-26.68 449.84-27.10Q449.36-27.52 449.09-28.08Q448.83-28.63 448.83-29.26L448.83-29.26Q448.83-29.90 449.09-30.46Q449.36-31.02 449.84-31.43Q450.33-31.84 451.03-32.08Q451.72-32.32 452.58-32.32L452.58-32.32Q453.46-32.32 454.15-32.08Q454.84-31.84 455.33-31.43Q455.82-31.02 456.08-30.46Q456.35-29.90 456.35-29.26L456.35-29.26Q456.35-28.63 456.08-28.08Q455.82-27.52 455.33-27.10Q454.84-26.68 454.15-26.44Q453.46-26.19 452.58-26.19ZM449.69 0L449.69-23.05L455.47-23.05L455.47 0L449.69 0Z M461.48-11.52L461.48-11.52Q461.48-14.00 462.49-16.17Q463.50-18.34 465.36-19.96Q467.23-21.58 469.87-22.52Q472.52-23.46 475.82-23.46L475.82-23.46Q479.12-23.46 481.77-22.52Q484.41-21.58 486.28-19.96Q488.14-18.34 489.15-16.17Q490.16-14.00 490.16-11.52L490.16-11.52Q490.16-9.04 489.15-6.88Q488.14-4.71 486.28-3.09Q484.41-1.46 481.77-0.53Q479.12 0.41 475.82 0.41L475.82 0.41Q472.52 0.41 469.87-0.53Q467.23-1.46 465.36-3.09Q463.50-4.71 462.49-6.88Q461.48-9.04 461.48-11.52ZM467.56-11.52L467.56-11.52Q467.56-10.14 468.12-8.90Q468.67-7.66 469.74-6.71Q470.80-5.76 472.33-5.21Q473.87-4.65 475.82-4.65L475.82-4.65Q477.77-4.65 479.31-5.21Q480.84-5.76 481.90-6.71Q482.97-7.66 483.53-8.90Q484.08-10.14 484.08-11.52L484.08-11.52Q484.08-12.91 483.53-14.16Q482.97-15.41 481.90-16.36Q480.84-17.30 479.31-17.86Q477.77-18.42 475.82-18.42L475.82-18.42Q473.87-18.42 472.33-17.86Q470.80-17.30 469.74-16.36Q468.67-15.41 468.12-14.16Q467.56-12.91 467.56-11.52Z M496.00 0L496.00-23.05L501.78-23.05L501.78-21.09Q504.08-22.40 506.18-22.93Q508.28-23.46 510.29-23.46L510.29-23.46Q512.93-23.46 515.18-22.69Q517.42-21.91 519.06-20.39Q520.70-18.87 521.63-16.59Q522.56-14.32 522.56-11.33L522.56-11.33L522.56 0L516.80 0L516.80-10.39Q516.80-12.29 516.26-13.78Q515.72-15.27 514.72-16.30Q513.71-17.32 512.28-17.86Q510.84-18.40 509.06-18.40L509.06-18.40Q508.13-18.40 507.14-18.20Q506.15-18.01 505.21-17.65Q504.26-17.29 503.38-16.75Q502.50-16.21 501.78-15.53L501.78-15.53L501.78 0L496.00 0Z M528.07-2.70L530.57-7.07Q532.91-5.66 535.72-5Q538.54-4.34 541.48-4.34L541.48-4.34Q543.48-4.34 544.80-4.61Q546.13-4.88 546.93-5.31Q547.73-5.74 548.07-6.29Q548.40-6.84 548.40-7.40L548.40-7.40Q548.40-8.22 547.69-8.81Q546.97-9.39 545.33-9.39L545.33-9.39Q544.57-9.39 543.69-9.30Q542.81-9.20 541.85-9.09Q540.88-8.98 539.83-8.89Q538.79-8.79 537.71-8.79L537.71-8.79Q535.37-8.79 533.72-9.30Q532.07-9.80 531.04-10.68Q530-11.56 529.53-12.76Q529.06-13.96 529.06-15.35L529.06-15.35Q529.06-17.11 529.88-18.59Q530.70-20.08 532.23-21.16Q533.75-22.25 535.91-22.85Q538.07-23.46 540.72-23.46L540.72-23.46Q542.11-23.46 543.62-23.29Q545.14-23.13 546.60-22.85Q548.07-22.58 549.41-22.22Q550.76-21.86 551.80-21.45L551.80-21.45L549.98-16.95Q547.77-17.77 545.58-18.25Q543.38-18.73 541.05-18.73L541.05-18.73Q539.43-18.73 538.31-18.49Q537.19-18.24 536.48-17.84Q535.78-17.44 535.46-16.92Q535.14-16.41 535.14-15.84L535.14-15.84Q535.14-15.43 535.30-15.10Q535.47-14.77 535.85-14.52Q536.23-14.28 536.85-14.15Q537.46-14.02 538.36-14.02L538.36-14.02Q539.18-14.02 540.10-14.12Q541.02-14.22 542.01-14.33Q543.01-14.43 544.07-14.53Q545.14-14.63 546.25-14.63L546.25-14.63Q548.32-14.63 549.87-14.14Q551.43-13.65 552.44-12.77Q553.46-11.89 553.96-10.70Q554.47-9.51 554.47-8.11L554.47-8.11Q554.47-6.29 553.63-4.73Q552.79-3.16 551.13-2.02Q549.47-0.88 547.00-0.23Q544.53 0.41 541.29 0.41L541.29 0.41Q539.30 0.41 537.44 0.17Q535.59-0.08 533.91-0.50Q532.23-0.92 530.75-1.48Q529.28-2.05 528.07-2.70L528.07-2.70Z"/></g>
</svg>
</g><g opacity="1" transform="rotate(0 -51.0425 97.08)">
<svg width="83.9999" height="84" x="-51.0425" y="97.08" version="1.1" preserveAspectRatio="none" viewBox="0 0 83.9999 84">
  <defs><rect x="0" y="0" width="83.9999" height="84" rx="0px" ry="0px" id="id-tBXipXk0b1709095645506"></rect></defs><use class="companyName text-str" style="stroke-width:0;" xlink:href="#id-tBXipXk0b1709095645506"></use>
</svg>
</g><g opacity="1" transform="rotate(0 -31.0425 126.5676)">
<svg width="43.9999" height="25.0248" x="-31.0425" y="126.5676" version="1.1" preserveAspectRatio="none" viewBox="20 54.499996185302734 160.00099182128906 91">
  <g transform="matrix(1 0 0 1 0 0)"><g><path d="M160.026 89.196s-.496 1.817.068 2.114c0 0 .708.829.645 1.384-.064.555-.074 1.316-.712 1.572-.638.257-1.351.674-2.135.225l.18 1.523.329 4.831 3.08 2.342-1.44 7.687-1.729 6.478s-2.244 2.939-2.341 3.043c-.096.104-2.549 1.404-2.549 1.404s-4.434-4.993-4.616-5.28c-.182-.286-1.455-4.005-1.455-4.135 0-.13 1.89-9.238 1.89-9.238l2.139-1.842s.551-.368.627-.788c.076-.42 0-2.199 0-2.199s-1.097.059-1.749-.736c-.651-.794-.639-3.058-.639-3.058l.139-5.804 2.061-.019 1.455-.486 1.14-.717.334-.289.902-.546 2.508.546 1.868 1.988z" data-color="1" class="icon3"></path><path d="M152.132 98.324s3.766.174 4.582-.76c.816-.934.585-3.204.448-3.791-.137-.587-.16-1.793-.16-1.793s.986-1.867 2.746-1.035c0 0 .519-1.978.137-3.635-.382-1.657-1.571-2.928-3.807-2.208l-.162-.067s-1.418-.874-3.36-.74c-1.941.133-3.952 2.399-3.941 4.435 0 0 .975 2.434.959 2.373-.015-.061.073-2.402.073-2.402s1.231.29 2.483-.07 2.81-1.588 2.81-1.588.16 2.636 1.573 3.677c0 0-.156.488-.167.588-.011.101-.092 2.115-.572 2.279s-2.04-.208-2.698.184c-.658.393-.756.724-1.209.599a7.247 7.247 0 0 0-1.361-.257c-.49-.042-.874.274-.874.274s-.375 4.13 2.5 3.937z" data-color="2" class="shape"></path><path d="M137.558 108.078s5.024-5.195 11.682-5.042l1.947 9.574.56-.985 1.675 8.034 1.191 1.19 4.439-10.352.433.186 1.598-7.809s3.897.177 6.669 1.307 4.637 3.143 6.733 9.087a783.802 783.802 0 0 0 5.062 13.889c.768 2.037.901 9.008-3.296 11.341-4.197 2.332-5.742.755-5.742.755v5.95H143.61l-6.052-37.125z" data-color="3" class="background"></path><path d="M33.972 88.959v23.648s5.352-4.022 13.277-6.393c7.925-2.372 11.298-2.521 11.298-2.521V80.12s-6.088.645-12.93 3.038c-6.843 2.394-11.645 5.801-11.645 5.801z" data-color="1" class="icon3"></path><path d="M74.567 113.708s-5.381-.589-8.501-3.743l-3.682 7.957s-1.101-5.191-1.387-6.451c-.285-1.261-.323-3.752-7.175-3.711l-5.405-.002s-6.446-.241-8.641 3.387c-2.195 3.628-2.287 5.465-2.287 5.465l-5.394 21.294-1.499 7.298h33.581l-.362-10.15s2.749.262 4.795-2.512 3.438-6.106 4.027-7.978c.589-1.873 1.867-6.639 1.867-6.639l.063-4.215z" data-color="3" class="background"></path><path d="m131.52 95.452-.69-2.333-1.11-1.232-1.093-.365H93.109l-.962.29-1.175 1.175-.367 1.087.281 1.378 6.085 22.013.458 1.034.781.738.839.422 22.173-.079 14.176-8.329-3.878-15.799z" data-color="1" class="icon3"></path><path d="m128.627 94.901-.646-.792-.89-.268-32.356.006-.834.431-.312.96 5.758 20.758.59.781 1.161.546h21.632s11.198-8.306 11.198-8.398c.002-.093-5.301-14.024-5.301-14.024z" data-color="1" class="icon3"></path><path d="M128.668 110.401s-3.469.675-4.983 3.698c-1.514 3.022-3.158 6.832-3.754 7.917-.596 1.085-2.833 1.454-3.478.386-.645-1.067-4.198-12.152-4.198-12.152s-1.146-1.351-5.233-1.109c-4.087.243-4.634 2.614-4.634 2.614s1.313 8.437 2.628 11.814c1.316 3.377 3.818 10.717 11.134 10.698 0 0 3.137.149 4.293-.364 0 0-.577 9.548-1.256 11.3h24.422s-.311-8.475-.299-11.047c.012-2.572.396-7.012.158-9.676-.238-2.664 0-4.82 0-4.82l-10.488-10.334-4.312 1.075z" data-color="2" class="shape"></path><path d="M119.668 77.351a.704.704 0 1 0-.001-1.407.704.704 0 0 0 .001 1.407z" data-color="3" class="background"></path><path d="M125.135 77.387a.74.74 0 1 0 0-1.48.74.74 0 0 0 0 1.48z" data-color="3" class="background"></path><path d="M130.602 77.333a.686.686 0 1 0-.001-1.371.686.686 0 0 0 .001 1.371z" data-color="3" class="background"></path><path d="M119.668 82.858a.74.74 0 1 0 0-1.48.74.74 0 0 0 0 1.48z" data-color="3" class="background"></path><path d="M125.135 82.894a.776.776 0 1 0 0-1.553.776.776 0 0 0 0 1.553z" data-color="3" class="background"></path><path d="M130.602 82.84a.722.722 0 1 0 0-1.445.722.722 0 0 0 0 1.445z" data-color="3" class="background"></path><path d="M119.668 88.274a.686.686 0 1 0-.001-1.371.686.686 0 0 0 .001 1.371z" data-color="3" class="background"></path><path d="M125.135 88.311a.722.722 0 1 0 0-1.443.722.722 0 0 0 0 1.443z" data-color="3" class="background"></path><path d="M131.275 87.588a.673.673 0 1 1-1.346 0 .673.673 0 0 1 1.346 0z" data-color="3" class="background"></path><path d="m110.823 109.287.791-2.618s.639-1.731-.256-2.019c-.896-.288-1.44.713-1.607 1.252-.167.539-.377 1.437-1.47.982 0 0-.598-.425-1.037-2.285-.439-1.86-1.497-4.218-1.497-4.218s-.438-1.191-1.296-.871c-.858.32-.657 1.359-.395 2.145.261.786.929 2.937.929 2.937s-1.383-.12-1.464 1.042c0 0-1.179.365-1.25 1.238-.07.873.325 2.447.559 2.933.234.485.439.834.439.834s1.334-1.225 3.292-1.455c1.958-.229 4.262.103 4.262.103z" data-color="1" class="icon3"></path><path d="m48.61 107.749-.055-4.548s-1.403.446-2.028-1.309c-.625-1.756 2.324-2.074 2.62-1.924 0 0 1.865-.875 2.63-1.347 1.43-.882 2.541-3.353 2.541-3.353l.868 1.239.772 4.545s.262 3.022-.424 3.742c-.686.721-1.583.887-2.012.834l.16 2.129s.542 1.742.62 2.041c.078.298.486 1.718-.799 2.106-1.285.388-2.357-.404-2.994-1.169-.639-.764-1.899-2.986-1.899-2.986z" data-color="1" class="icon3"></path><path d="m67.497 111.027 1.085-1.842s.625-3.31.89-3.556.551-.96 1.979-.925c0 0 .271-.159.307-.209.036-.05 2.575-2.92 2.575-2.92s.564-.225 1.003.132c.439.357.321 1.064.094 1.461-.226.397-1.521 2.113-1.521 2.113s1.31.013 1.445.603l-.541.568-.167 5.195s-1.279 1.555-1.911 1.671c.001.001-4.113-1.189-5.238-2.291z" data-color="1" class="icon3"></path><path d="M55.086 96.478s.472-1.643-.853-3.202c-1.324-1.559-5.472-.055-5.472-.055s.591-1.826-.282-3.267c-.873-1.442-2.77-1.999-4.483-1.138-1.713.86-2.347 3.073-2.01 4.59.337 1.517 1.38 2.435 2.348 2.476 0 0-.475 1.872.083 4.039.558 2.167 1.923 3.877 4.147 4.032l-.009-.75s-1.673.252-1.938-1.176c-.265-1.429.871-2.047 1.195-2.105.324-.059 1.099.054 1.099.054s1.03-.255 1.968-.776 1.979-1.553 2.249-1.915c.27-.361 1.209-1.933 1.209-1.933s.662.692.749 1.126z" data-color="2" class="shape"></path><path d="M126.587 98.881s-.263-2.507.803-3.516c0 0 1.987-.638 3.702.184 0 0 2.446-.419 3.325-.319.879.1 2.92 1.411 3.195 3.113.275 1.702.154 3.177-.123 4.261s-.785 2.787-.602 3.839c.184 1.052.898 2.369 2.519 3.068 1.622.699 3.097 1.891 3.699 2.814.601.923 1.815 3.151 1.929 4.846.114 1.694-.513 4.422-2.035 5.324-1.522.902-3.629 1.508-6.084.511-2.455-.997-2.953-2.264-3.008-3.09-.054-.826.736-4.929.593-5.827-.143-.898-1.022-2.018-2.479-2.193-1.457-.175-3.685-.692-4.089-2.619-.404-1.928-.551-2.945-.551-2.945l-.794-7.451z" data-color="1" class="icon3"></path><path d="M129.094 101.522s.782-.341 1.593-.021c.811.32 1.214 1.505.913 2.221-.301.716-1.097 1.313-2.137 1.068 0 0-1.834 1.228-1.934 2.558l-.101.138s-1.561-.123-1.958-1.157c-.398-1.034-.395-1.714-.289-2.224.106-.51.169-1.153.169-1.153l-.593-.123-.236-.424.938-3.129.316-.304.563.277.163-.253c.001 0 1.183 2.288 2.593 2.526z" data-color="1" class="icon3"></path><path d="m74.814 106.453-.65 24.044s9.263-5.653 10.618-13.797V93.431s.706-3.227-1.336-6.492c-2.041-3.265-6.766-5.11-6.766-5.11l-.102 23.219-1.764 1.405z" data-color="1" class="icon3"></path><path d="m58.849 113.884-.303 23.68s-9.093 2.625-16.676 2.108c-7.584-.516-12.75-2.413-15.552-5.159-2.802-2.747-3.028-5.888-3.028-5.888l-.053-24.542s-.619 6.582 7.785 9.805c8.405 3.222 17.829 1.984 18.69 1.895 1.647-.17 9.137-1.899 9.137-1.899z" data-color="1" class="icon3"></path><path d="M50.694 126.451s11.094-.986 14.442-3.234v8.194s-5.949 2.826-14.442 3.22v-8.18z" data-color="2" class="shape"></path><path d="m67.497 111.027.648-1.099s-1.84-.464-2.013-.106c-.173.358 1.365 1.205 1.365 1.205z" data-color="3" class="background"></path><path d="M74.567 111.744s-1.197 1.47-1.69 1.576c0 0 1.18.336 1.69.32v-1.896z" data-color="3" class="background"></path><path d="m169.183 126.461 4.134-9.841-14.267-6.123-8.848 20.616 14.139 6.175.39-.449s-5.225-3.155-6.448-4.706c-1.224-1.551-2.697-2.715-2.697-2.715s.78-2.245 2.554-4.491c1.775-2.245 2.754-3.164 2.754-3.164l8.289 4.698z" data-color="1" class="icon3"></path><path d="M157.198 109.276c-.076.056-.691 1.873-.691 1.873l.472 4.042-2.467 5.584-1.09-1.116-.387-1.854 1.006-6.492-.93-2.201 2.005-3.555 2.082 3.719z" data-color="2" class="shape"></path><path d="M153.806 96.79s-.07-.879.43-1.298c.5-.418.879-.496.879-.496s-.186-.46-.584-.431c-.398.029-.357.723-.877.856s-.867-.245-1.254-.01c-.388.235-.53.286-.347.602.184.316.551.779 1.091.818.541.039.662-.041.662-.041z" data-color="3" class="background"></path><path d="M115.508 71.144c0 9.192-7.446 16.644-16.632 16.644-9.186 0-16.632-7.452-16.632-16.644 0-9.192 7.446-16.644 16.632-16.644 9.186 0 16.632 7.452 16.632 16.644z" data-color="2" class="shape"></path><path d="M93.549 71.472a1.758 1.758 0 0 0-2.49 0l-.678.679a1.761 1.761 0 0 0 0 2.491l4.959 4.963a1.759 1.759 0 0 0 2.489 0l10.209-9.967a1.763 1.763 0 0 0 0-2.491l-.679-.68a1.76 1.76 0 0 0-2.49 0l-8.285 8.043-3.035-3.038z" data-color="1" class="icon3"></path><path d="M34.069 99.462v7.07l-3.929 1.909v-7.07l3.929-1.909z" data-color="2" class="shape"></path><path d="M76.591 84.119v5.985s-2.26-1.124-4.375-1.422c-2.115-.298-3.661-.415-3.661-.415v-5.985s2.458-.054 4.697.631c2.239.686 3.339 1.206 3.339 1.206z" data-color="3" class="background"></path><path d="m76.681 81.828-.102 23.219s3.603-2.512 5.398-5.37c1.795-2.858 2.704-5.39 2.806-6.246.102-.857.347-4.104-1.052-6.005-1.399-1.902-1.984-3.116-7.05-5.598z" data-color="2" class="shape"></path><path d="M130.954 123.521s-2.43 9.307-10.589 13.226l.078-2.845s3.588-1.19 5.858-3.214c3.325-2.964 4.653-7.167 4.653-7.167z" data-color="3" class="background"></path><path d="M154.849 124.038s-.867.149-1.746.32l-1.356 3.16s4.935 5.985 9.744 8.526l2.852 1.245.39-.449s-5.225-3.155-6.448-4.706c-1.224-1.551-2.697-2.715-2.697-2.715s.436-1.255 1.397-2.825l-2.136-2.556z" opacity=".4"></path><path d="M160.404 122.157s-.589-1.373-.752-1.904c-.163-.531-.51-2.123-1.265-2.041-.755.082-1.04.816-.836 1.572.204.755.857 2.49.102 2.654-.755.163-1.956-.622-2.803-1.372-.848-.751-2.966-2.413-2.966-2.413s-.676.254-.839.622c-.163.367.136.867.136.867s-.551-.174-.853.194c-.303.368-.426 1.008-.232 1.229 0 0-1.013.715-.358 1.621.655.907 1.593 2.152 2.776 3.132 1.183.98 2.002 1.832 3.459 2.182 0 0 1.233-2.427 1.865-3.305s2.566-3.038 2.566-3.038z" data-color="1" class="icon3"></path><path d="m94.399 108.159 2.572 9.306.458 1.034 1.094.895.526.265 4.761-.017 1.82 5.643H91.838l-4.73-17.043 7.291-.083z" data-color="3" class="background"></path><path d="M47.305 91.012c.459 2.296.122 2.388.122 2.388h.949l.392-.201c.062-.206.529-1.895-.289-3.246-.873-1.442-2.77-1.999-4.483-1.138a3.368 3.368 0 0 0-.44.271c.61-.042 3.348-.083 3.749 1.926z" data-color="1" class="icon3"></path><path d="M50.134 92.829c.708.054 3.429.368 3.336 1.98-.107 1.85-3.398 4.768-3.409 4.777.262-.107.544-.236.818-.388.938-.521 1.979-1.553 2.249-1.915.27-.361 1.208-1.933 1.208-1.933s.661.694.749 1.128c0 0 .472-1.643-.852-3.202-.829-.977-2.767-.752-4.099-.447z" data-color="1" class="icon3"></path><path d="M155.115 94.997s-1.906.7-1.235 1.721c0 0 .539-.092.906-.541.368-.45.329-1.18.329-1.18z" data-color="1" class="icon3"></path><path d="M149.648 88.702s1.231.291 2.483-.07c.312-.09.644-.234.965-.399-1.169.374-3.155-.66-3.155-.66.133-1.661 2.619-3.108 2.942-3.289a6.102 6.102 0 0 0-.327.012c-1.941.133-3.952 2.399-3.941 4.435 0 0 .975 2.434.959 2.373-.015-.061.074-2.402.074-2.402z" data-color="1" class="icon3"></path><path d="M153.88 98.162c-4.078.26-3.448-4.043-3.448-4.043s-.184.028-.432.072c-.223.082-.367.2-.367.2s-.376 4.127 2.498 3.934c0 0 1.541.071 2.865-.122-.14-.062-.487-.082-1.116-.041z" data-color="1" class="icon3"></path><path d="m155.718 106.631-1.416 2.469.815 2.029-1.213 9.011-.308-.282-.484-2.053.968-6.554-.803-2.151 1.923-3.547.518 1.078z" data-color="1" class="icon3"></path><path d="M122.399 133.262s-1.126-4.053-5.41-3.854c-4.284.199-5.538 3.383-5.538 3.383s2.004 1.505 5.614 1.503c3.611-.002 5.334-1.032 5.334-1.032z" data-color="3" class="background"></path><path d="M67.497 111.332a.154.154 0 0 1-.083-.024.161.161 0 0 1-.055-.222c.29-.478 1.107-2.025 1.115-2.04l.537-2.094c.022-.1.047-.206.073-.311.177-.7.419-1.48 1.037-1.87.344-.215.722-.222 1.103-.227.485.004.974.058 1.452.16.21.045.457.107.679.225.478.249.845.839.584 1.441-.137.317-.427.571-.818.716-.437.162-.944.191-1.288.2a3.904 3.904 0 0 1-1.89-.422.162.162 0 0 1-.069-.218.163.163 0 0 1 .218-.069 3.564 3.564 0 0 0 1.643.386l.09-.001c.32-.008.792-.034 1.184-.18.302-.112.534-.309.634-.541.182-.423-.089-.844-.437-1.026a2.364 2.364 0 0 0-.598-.195 6.825 6.825 0 0 0-1.386-.152c-.358-.011-.661.008-.929.177-.517.327-.733 1.037-.895 1.676-.026.102-.049.204-.072.307l-.552 2.135c-.047.099-.844 1.606-1.138 2.092a.166.166 0 0 1-.139.077z"></path><path d="M74.7 110.82c-.45-.048-.736-.315-.894-.818-.102-.327-.068-.716.096-1.096.181-.423.424-.747.733-1.103a.162.162 0 1 1 .243.212c-.288.334-.515.635-.68 1.019-.134.309-.163.618-.083.872.117.377.303.56.603.592a.163.163 0 0 1 .144.178.164.164 0 0 1-.162.144z"></path><path d="M73.798 105.541a.168.168 0 0 1-.099-.033.162.162 0 0 1-.029-.226c.3-.393.607-.782.914-1.17l.096-.121c.457-.571.888-1.111.701-1.831-.077-.298-.299-.616-.662-.531-.188.043-.356.163-.549.33-.97.831-1.762 1.887-2.408 2.811a.163.163 0 0 1-.226.039.163.163 0 0 1-.039-.225c.658-.94 1.466-2.016 2.463-2.871.198-.17.42-.337.687-.399.551-.133.925.292 1.047.764.226.877-.299 1.534-.761 2.114l-.095.12c-.307.387-.611.775-.912 1.165a.158.158 0 0 1-.128.064z"></path><path d="M75.384 106.124a.16.16 0 0 1-.153-.112c-.094-.294-.272-.459-.576-.534-.197-.048-.555-.088-.749.191a.162.162 0 0 1-.225.04.162.162 0 0 1-.04-.225c.222-.32.62-.439 1.091-.32.414.102.678.347.806.749a.162.162 0 0 1-.154.211z"></path><path d="M73.157 109.195c-.437 0-.988-.206-1.245-.67-.163-.296-.263-.798.192-1.511a.16.16 0 0 1 .222-.049.16.16 0 0 1 .049.223c-.292.458-.355.866-.181 1.18.193.348.619.503.961.503.342-.003.634-.225.821-.412.168-.167.289-.316.42-.474.08-.098.163-.198.261-.31a.162.162 0 1 1 .243.214 9.806 9.806 0 0 0-.254.302c-.136.164-.263.319-.442.497-.229.229-.594.502-1.035.507h-.012z"></path><path d="M71.823 110.93a.162.162 0 0 1-.126-.262c.672-.845.594-1.8.593-1.81a.16.16 0 0 1 .146-.175c.104-.019.167.057.176.145.004.044.093 1.09-.663 2.042a.159.159 0 0 1-.126.06z"></path><path d="M172.711 139.679c-5.656.001-13.144-5.729-17.242-10.174a.16.16 0 0 1-.033-.167c.009-.024.906-2.376 2.429-4.399 1.604-2.13 2.814-3.294 2.826-3.306a.161.161 0 0 1 .182-.029c.08.039 8.104 3.91 13.202 8.201.068.058.077.16.02.228a.163.163 0 0 1-.228.02c-4.755-4.003-12.083-7.643-13.032-8.107-.291.292-1.359 1.391-2.711 3.188-1.327 1.761-2.169 3.776-2.349 4.227 6.162 6.65 15.279 12.115 20.129 9.168 6.894-4.188 2.835-14.15-.425-22.155-.568-1.395-1.104-2.711-1.559-3.939l-.157-.432c-.657-1.831-1.88-5.238-4.777-7.004-2.044-1.247-4.925-1.963-7.903-1.963-.089 0-.161-.072-.161-.162s.072-.162.161-.162c3.036 0 5.978.732 8.071 2.01 2.993 1.826 4.241 5.303 4.912 7.171l.156.429c.454 1.222.989 2.537 1.556 3.929 3.308 8.119 7.423 18.223.292 22.554-.999.607-2.136.874-3.359.874z"></path><path d="M155.971 128.66c-2.266-.35-6.126-4.387-6.525-5.753-.208-.709.165-1.177.489-1.395-.228-.381-.172-.828.161-1.181.128-.138.268-.237.416-.296.259-.102.55-.064.865.113a.161.161 0 0 1-.158.281c-.23-.129-.42-.16-.588-.095a.833.833 0 0 0-.299.216c-.268.284-.282.623-.037.907a.16.16 0 0 1-.057.252c-.029.013-.709.329-.482 1.105.375 1.277 4.145 5.197 6.242 5.523a.162.162 0 0 1 .135.184.167.167 0 0 1-.162.139z"></path><path d="M154.765 123.433a.165.165 0 0 1-.087-.025c-.632-.4-2.337-1.862-2.827-2.348-.057-.057-.125-.119-.197-.185-.364-.334-.863-.793-.864-1.321 0-.264.123-.512.366-.737.818-.758 1.597-.01 2.06.437.094.09.232.229.398.394.51.511 1.282 1.282 1.752 1.641.421.321 1.698 1.292 2.201 1.054.363-.173.475-.504.028-1.759-.322-.902-.352-1.747-.079-2.206a.708.708 0 0 1 .508-.358c.98-.151 1.227.598 1.433 1.198.047.138.092.272.146.394.125.286.203.585.286.902.136.521.276 1.06.643 1.545a.161.161 0 0 1-.032.226.163.163 0 0 1-.227-.031c-.404-.537-.553-1.107-.697-1.658-.08-.304-.154-.592-.269-.854a5.189 5.189 0 0 1-.156-.419c-.232-.682-.437-1.084-1.077-.984a.39.39 0 0 0-.281.204c-.218.367-.175 1.143.106 1.932.398 1.12.494 1.832-.195 2.159-.607.287-1.62-.39-2.534-1.089-.488-.372-1.269-1.152-1.785-1.669-.163-.163-.3-.3-.393-.389-.677-.653-1.112-.897-1.617-.433-.176.164-.262.327-.262.5.001.386.439.789.759 1.084.076.069.147.134.207.194.469.465 2.167 1.922 2.772 2.304a.16.16 0 0 1-.086.297z"></path><path d="M153.671 124.967a.165.165 0 0 1-.102-.036s-.839-.679-1.777-1.448c-.665-.544-1.426-1.434-1.67-1.724a.173.173 0 0 1-.17-.08.163.163 0 0 1 .062-.22.906.906 0 0 1 .06-.031c.065-.032.174-.024.22.033.01.011.94 1.148 1.7 1.771.938.769 1.776 1.447 1.777 1.447.069.056.08.158.024.227a.152.152 0 0 1-.124.061z"></path><path d="M74.567 113.87c-.893-.001-2.456-.425-4.289-1.164-1.631-.657-4.628-2.118-4.296-2.944.143-.356.57-.34.818-.331.506.019.953.112 1.347.277.082.035.12.129.087.212a.162.162 0 0 1-.211.087 3.428 3.428 0 0 0-1.213-.252c-.256-.01-.473-.006-.527.128-.102.253 1.259 1.373 4.116 2.524 1.771.713 3.328 1.14 4.169 1.14a.161.161 0 1 1-.001.323z"></path><path d="M110.783 109.536a.163.163 0 0 1-.146-.232c.153-.319.312-.922.453-1.453.098-.37.189-.72.275-.959.186-.522.411-1.155.266-1.654a.708.708 0 0 0-.345-.442c-.202-.098-.478-.067-.705.079-.196.125-.365.323-.531.625-.05.091-.094.257-.14.432-.124.474-.294 1.124-.859 1.26-.814.192-1.418-.465-1.807-1.958a45.81 45.81 0 0 0-.451-1.636c-.371-1.241-.749-2.24-1.191-3.145l-.048-.1c-.114-.239-.221-.465-.422-.614a.654.654 0 0 0-.423-.114.695.695 0 0 0-.546.287c-.185.252-.242.664-.146 1.049.198.793 1.2 3.549 1.21 3.577a.157.157 0 0 1-.032.163.16.16 0 0 1-.159.049c-.004-.001-.543-.134-.941.134-.226.153-.365.413-.415.773a.163.163 0 0 1-.149.139c-.005.001-.51.041-.834.426-.227.272-.316.654-.263 1.135a.162.162 0 0 1-.143.178c-.106.006-.169-.055-.179-.143-.061-.575.053-1.039.341-1.381.305-.362.72-.482.928-.521.078-.395.257-.689.537-.877.311-.209.676-.234.915-.218-.254-.708-.96-2.683-1.129-3.357-.12-.482-.044-.987.198-1.318.184-.253.456-.397.787-.418a.953.953 0 0 1 .633.175c.266.197.397.47.524.735l.047.098c.448.921.832 1.936 1.209 3.194.146.488.295 1.027.456 1.648.334 1.29.805 1.875 1.419 1.725.376-.09.512-.61.621-1.027.054-.204.1-.38.17-.507.194-.35.398-.586.64-.74.324-.208.715-.247 1.021-.098.241.118.428.353.513.642.173.601-.081 1.316-.266 1.839-.087.241-.176.584-.273.948-.15.572-.307 1.164-.473 1.511a.165.165 0 0 1-.147.091z"></path><path d="M104.35 107.919a.163.163 0 0 1-.135-.072c-.858-1.299-.848-2.229-.847-2.268.001-.089.091-.147.164-.158a.16.16 0 0 1 .158.164c0 .009-.003.877.794 2.083a.162.162 0 0 1-.134.251z"></path><path d="M105.803 106.655a.162.162 0 0 1-.147-.095c-.667-1.486-.736-1.926-.74-1.944a.162.162 0 0 1 .137-.184c.087-.008.17.048.183.136.002.015.083.455.713 1.86a.161.161 0 0 1-.081.214.16.16 0 0 1-.065.013z"></path><path d="M103.269 110.801a.16.16 0 0 1-.136-.075c-1.042-1.626-1.04-3.531-1.039-3.611a.16.16 0 1 1 .322.002c0 .019 0 1.892.988 3.435a.162.162 0 0 1-.135.249z"></path><path d="M153.437 96.993a1.81 1.81 0 0 1-.958-.274c-.351-.217-.583-.525-.608-.804a.632.632 0 0 1 .244-.586c.225-.167.562-.19.878-.061.405.164.449.146.553.106.102-.04.149-.059.334-.454.145-.31.408-.522.685-.553a.642.642 0 0 1 .577.263c.159.206.189.565.08.961-.162.59-.571 1.064-1.093 1.269a1.89 1.89 0 0 1-.692.133zm-.852-1.484a.463.463 0 0 0-.277.08c-.089.066-.127.166-.115.297.012.141.16.376.456.559.193.119.709.37 1.362.115.428-.168.766-.562.901-1.055.091-.328.053-.577-.024-.676-.081-.104-.165-.151-.287-.14-.163.018-.332.163-.428.369-.218.468-.312.541-.507.617-.194.078-.313.088-.792-.107a.777.777 0 0 0-.289-.059z"></path><path d="M153.855 96.941a.163.163 0 0 1-.157-.122c-.305-1.202.767-1.82 1.376-1.978a.161.161 0 0 1 .081.312c-.059.016-1.446.396-1.144 1.586a.162.162 0 0 1-.156.202z"></path><path d="M150.469 92.489a.531.531 0 0 1-.068-.005c-.212-.032-.475-.209-.513-.879-.02-.351.028-.686.031-.701.013-.088.101-.146.183-.137.089.013.15.095.137.184-.069.466-.049 1.174.209 1.212.032.005.066.003.11-.033.211-.167.338-.784.369-1.134.008-.088.084-.144.175-.147a.163.163 0 0 1 .147.175c-.01.107-.103 1.053-.491 1.358a.454.454 0 0 1-.289.107z"></path><path d="M154.289 92.515a.408.408 0 0 1-.077-.007c-.677-.118-.47-1.441-.444-1.591a.162.162 0 0 1 .186-.132.16.16 0 0 1 .131.186c-.079.464-.077 1.173.181 1.218.027.005.06.004.105-.03.22-.165.368-.809.41-1.176.009-.089.068-.156.179-.143a.16.16 0 0 1 .141.179c-.012.111-.135 1.096-.536 1.398a.448.448 0 0 1-.276.098z"></path><path d="M52.546 105.79c-.305 0-.631-.007-.963-.031a.16.16 0 0 1-.15-.173c.005-.089.072-.173.172-.15.526.037 1.043.033 1.473.024l.168-.003c.731-.013 1.421-.025 1.949-.524.168-.158.308-.354.404-.567.134-.293.182-.642.225-.95.051-.372.071-.766.06-1.205-.021-.746-.129-1.502-.236-2.233l-.026-.182c-.129-.894-.611-2.959-.617-2.98a.162.162 0 0 1 .12-.194.162.162 0 0 1 .195.121c.02.085.49 2.099.621 3.007l.026.182c.107.74.218 1.506.238 2.271.012.457-.008.868-.062 1.258-.046.33-.097.705-.251 1.04a2.131 2.131 0 0 1-.477.668c-.619.583-1.404.598-2.164.611l-.168.003c-.167.005-.347.007-.537.007z"></path><path d="M51.421 99.046c.125-.037.218.007.314.464.107.509-.015.617-.13.627-.116.01-.252-.133-.293-.502-.042-.368-.055-.541.109-.589z"></path><path d="M54.704 98.348c.124-.041.218 0 .33.453.124.505.006.617-.109.631-.115.014-.256-.125-.31-.491-.055-.367-.073-.539.089-.593z"></path><path d="M55.296 97.525a.163.163 0 0 1-.089-.027c-.184-.121-.405-.22-.913-.017a.16.16 0 0 1-.21-.089.162.162 0 0 1 .09-.21c.622-.251.952-.126 1.211.047.074.049.095.15.046.224a.16.16 0 0 1-.135.072z"></path><path d="M48.21 103.401c-.848 0-1.614-.59-1.802-1.453a1.84 1.84 0 0 1 .251-1.39 1.83 1.83 0 0 1 1.16-.805 1.835 1.835 0 0 1 1.05.079c.099.01.337.073.62.417a.162.162 0 1 1-.25.205c-.237-.288-.405-.301-.408-.301a.2.2 0 0 1-.058-.012 1.498 1.498 0 0 0-.885-.073 1.514 1.514 0 0 0-.958.664c-.22.342-.294.749-.207 1.146.18.822.996 1.343 1.811 1.164.269-.059.518-.19.719-.379a.161.161 0 0 1 .228.007.162.162 0 0 1-.006.228 1.835 1.835 0 0 1-1.265.503z"></path><path d="M47.914 102.582a.162.162 0 0 1-.117-.05.162.162 0 0 1 .007-.229l.886-.84-1.156-.69a.162.162 0 0 1-.057-.221.164.164 0 0 1 .221-.056l1.34.799a.162.162 0 0 1 .029.256l-1.042.987a.164.164 0 0 1-.111.044z"></path><path d="M52.98 112.278a2.13 2.13 0 0 1-.664-.111c-.872-.289-1.586-.94-2.032-1.436-.679-.753-1.268-1.677-1.747-2.749l-.076-.171a.162.162 0 0 1 .085-.212.163.163 0 0 1 .213.085l.071.165c.467 1.041 1.037 1.937 1.693 2.665.421.466 1.09 1.078 1.894 1.345.445.148.88.124 1.198-.064 1.043-.612.67-1.624.276-2.697-.175-.474-.34-.923-.37-1.329l-.16-2.135a.16.16 0 0 1 .149-.173c.083-.012.165.06.173.149l.16 2.132c.027.364.184.792.351 1.245.383 1.042.86 2.339-.414 3.086a1.572 1.572 0 0 1-.8.205z"></path><path d="M48.61 107.91a.16.16 0 0 1-.161-.16l-.042-4.547a.161.161 0 1 1 .322-.003l.042 4.547a.161.161 0 0 1-.16.163h-.001z"></path><path d="M64.177 145.363a.161.161 0 0 1-.161-.155c-.09-1.969-.152-3.925-.214-5.817-.088-2.746-.177-5.585-.354-8.461a.161.161 0 0 1 .151-.171c.086-.013.165.063.171.151.176 2.88.267 5.722.355 8.47.06 1.891.123 3.846.213 5.813a.16.16 0 0 1-.153.168c-.003.002-.006.002-.008.002z"></path><path d="M63.02 123.12a.162.162 0 0 1-.161-.146c-.379-3.929-.975-7.441-1.822-10.739-.206-.802-.424-1.579-.825-2.269-1.177-2.022-3.632-2.032-5.798-2.04a58.28 58.28 0 0 1-.735-.006.161.161 0 0 1 .002-.323c.241.004.485.005.735.006 2.253.009 4.805.019 6.074 2.201.422.725.647 1.526.86 2.351.85 3.313 1.45 6.842 1.831 10.788a.16.16 0 0 1-.146.176l-.015.001z"></path><path d="M54.666 101.755c-.124-.025-.177-.111-.158-.198.127-.544.155-1.129.059-1.203-.09-.031-.448.093-.768.26a.16.16 0 0 1-.146.002.161.161 0 0 1-.088-.116l-.405-2.225a.161.161 0 0 1 .13-.188c.078-.018.171.042.187.13l.367 2.014c.313-.146.721-.283.919-.133.318.247.147 1.154.059 1.533a.158.158 0 0 1-.156.124z"></path><path d="M37.702 115.755c-.136-.036-.182-.128-.153-.213 1.069-3.232 2.36-5.327 3.836-6.228 1.74-1.061 3.523-1.718 7.033-1.718a.162.162 0 0 1 0 .324c-3.434 0-5.172.639-6.864 1.671-1.409.86-2.654 2.896-3.698 6.053a.165.165 0 0 1-.154.111z"></path><path d="M30.597 145.363c-.119-.021-.176-.107-.158-.194a742.55 742.55 0 0 1 1.499-7.165c.019-.087.105-.148.192-.124a.162.162 0 0 1 .124.192 741.29 741.29 0 0 0-1.499 7.162.161.161 0 0 1-.158.129z"></path><path d="M43.688 145.363c-.12-.022-.176-.107-.158-.195.367-1.769.684-3.512.994-5.485.014-.087.087-.152.185-.134a.163.163 0 0 1 .135.185 112.582 112.582 0 0 1-.998 5.501.16.16 0 0 1-.158.128z"></path><path d="M48.417 104.113c-2.725-.26-4.59-3.169-4.449-6.917.05-1.357.486-2.397 1.295-3.089 1.212-1.037 2.834-.941 3.129-.915.489-.207 4.767-1.929 6.22.299 1.135 1.737.725 3.268.708 3.332a.162.162 0 0 1-.314-.013 2.606 2.606 0 0 0-.629-1.261c-.363.823-1.833 3.641-5.282 4.59a.161.161 0 0 1-.198-.113.161.161 0 0 1 .113-.199c3.875-1.066 5.144-4.577 5.156-4.613a.165.165 0 0 1 .106-.102.164.164 0 0 1 .146.028c.021.017.387.308.662.874-.006-.576-.141-1.435-.736-2.347-1.362-2.087-5.817-.181-5.86-.162a.19.19 0 0 1-.083.013c-.018-.002-1.73-.189-2.928.837-.736.631-1.133 1.591-1.181 2.853-.134 3.571 1.608 6.34 4.142 6.582a.162.162 0 0 1 .146.176.166.166 0 0 1-.163.147z"></path><path d="M137.813 108.24a.162.162 0 0 1-.126-.263c.291-.36.553-.607.908-.912 3.592-3.092 6.926-3.611 9.868-4.07.253-.039.504-.078.75-.118a.158.158 0 0 1 .185.134.16.16 0 0 1-.133.185l-.754.119c-2.899.452-6.185.964-9.707 3.995-.341.293-.592.53-.867.87a.158.158 0 0 1-.124.06z"></path><path d="M151.187 112.771c-.092-.013-.145-.063-.158-.129l-1.947-9.463a.16.16 0 0 1 .053-.155l2.735-2.369a.15.15 0 0 1 .126-.038.158.158 0 0 1 .113.07l3.088 4.574 2.98-4.572a.16.16 0 0 1 .107-.071.153.153 0 0 1 .125.03l2.771 2.096a.16.16 0 0 1 .06.161l-1.598 7.809a.164.164 0 0 1-.191.126.161.161 0 0 1-.125-.191l1.578-7.709-2.552-1.93-2.965 4.55 3.3 5.986a.161.161 0 0 1-.283.155l-3.208-5.818-3.87 6.805a.155.155 0 0 1-.139.083zm-1.769-9.564 1.841 8.95 3.751-6.596-3.067-4.542-2.525 2.188z"></path><path d="M154.081 111.417a.162.162 0 0 1-.149-.1l-.898-2.154a.162.162 0 0 1 .087-.212.159.159 0 0 1 .211.087l.857 2.055 2.203-.004.653-1.963a.164.164 0 0 1 .205-.103c.084.029.13.12.102.205l-.69 2.073a.161.161 0 0 1-.153.111l-2.428.005z"></path><path d="M158.312 100.939a.161.161 0 0 1-.161-.154l-.313-6.212a.161.161 0 0 1 .153-.169.163.163 0 0 1 .169.153l.313 6.212a.161.161 0 0 1-.153.169l-.008.001z"></path><path d="M151.975 100.939a.162.162 0 0 1-.161-.164l.031-2.459a.16.16 0 0 1 .161-.159c.101.01.162.073.161.164l-.031 2.459a.16.16 0 0 1-.161.159z"></path><path d="M153.112 117.966c-.112-.015-.173-.097-.16-.185l.969-6.549c.013-.088.085-.144.184-.136a.162.162 0 0 1 .136.184l-.969 6.549a.161.161 0 0 1-.16.137z"></path><path d="M156.998 115.447a.161.161 0 0 1-.16-.142l-.491-4.035a.16.16 0 0 1 .14-.18.163.163 0 0 1 .18.141l.491 4.035a.16.16 0 0 1-.14.18l-.02.001z"></path><path d="M153.422 119.82a.163.163 0 0 1-.158-.129l-1.675-8.034a.16.16 0 0 1 .125-.191.163.163 0 0 1 .191.126l1.675 8.034a.16.16 0 0 1-.158.194z"></path><path d="M155.286 145.5a.16.16 0 0 1-.161-.161l-.067-12.053a.161.161 0 1 1 .322-.002l.067 12.053a.162.162 0 0 1-.16.163h-.001z"></path><path d="M119.188 145.363c-.136-.037-.182-.128-.153-.213.737-2.204 1.081-7.918 1.265-10.987l.016-.271c.005-.089.081-.175.171-.151a.16.16 0 0 1 .151.171l-.016.27c-.185 3.085-.53 8.826-1.281 11.071a.16.16 0 0 1-.153.11z"></path><path d="M53.623 103.363c-.183 0-.352-.04-.507-.12-.533-.275-.686-.918-.692-.945a.161.161 0 0 1 .122-.193.163.163 0 0 1 .194.121c.001.005.127.527.526.731.236.12.532.109.881-.037a.16.16 0 0 1 .211.087.162.162 0 0 1-.087.212c-.23.096-.447.144-.648.144z"></path><path d="M152.38 98.479c-.864 0-1.764-.103-2.321-.953-.571-.87-.574-2.004-.577-3.005-.001-.22-.001-.435-.008-.643-.021-.681.081-4.847.085-5.024a.16.16 0 1 1 .322.007c-.001.043-.105 4.334-.085 5.006.007.211.008.429.009.652.003 1.002.007 2.039.524 2.828.55.839 1.517.822 2.465.802l.356-.006c.8-.004 1.45-.068 2.045-.203.55-.124 1.12-.253 1.442-.73.355-.524.429-1.231.455-1.789.019-.4.01-.758-.027-1.093-.106-.881-.258-2.248-.258-2.248a.159.159 0 0 1 .009-.075 2.11 2.11 0 0 1 3.604-.592c.738.9.608 2.233-.29 2.973a2.102 2.102 0 0 1-2.625.045.163.163 0 0 1-.03-.226.163.163 0 0 1 .227-.03 1.778 1.778 0 0 0 2.222-.038 1.795 1.795 0 0 0 .247-2.519 1.789 1.789 0 0 0-3.039.465c.025.23.158 1.414.254 2.207.039.354.048.728.029 1.145-.026.6-.11 1.365-.509 1.955-.393.583-1.055.732-1.639.865-.618.14-1.29.207-2.113.211l-.353.005a9.76 9.76 0 0 1-.421.008z"></path><path d="M149.756 90.343a.161.161 0 0 1-.147-.229c.004-.008.388-.816 1.539-.517a.162.162 0 0 1-.081.313c-.89-.232-1.161.335-1.165.34a.16.16 0 0 1-.146.093z"></path><path d="M155.322 90.434a.16.16 0 0 1-.127-.062c-.749-.958-1.5-.507-1.532-.488a.16.16 0 0 1-.222-.05.16.16 0 0 1 .049-.222c.008-.007 1.023-.635 1.959.561a.162.162 0 0 1-.027.227.17.17 0 0 1-.1.034z"></path><path d="M159.407 93.935a.151.151 0 0 1-.071-.017l-1.514-.75a.162.162 0 0 1-.044-.258l1.376-1.408a.161.161 0 1 1 .23.226l-1.22 1.249 1.315.651a.162.162 0 0 1-.072.307z"></path><path d="M155.259 86.182a.162.162 0 0 1-.126-.264l.793-.985a.166.166 0 0 1 .227-.025c.07.056.081.158.025.228l-.793.985a.158.158 0 0 1-.126.061z"></path><path d="M153.038 94.04a.162.162 0 0 1-.112-.279c.471-.451 1.333-.371 2.028-.308.296.027.575.054.704.02.186-.049.44-1.105.531-2.214l.119-.482c-1.133-1.233-1.444-2.72-1.529-3.383-.673.601-2.649 2.059-5.467 1.403a.161.161 0 0 1-.12-.194c.021-.086.103-.137.195-.121 3.294.77 5.382-1.522 5.402-1.546a.16.16 0 0 1 .175-.044.162.162 0 0 1 .106.146c.001.02.087 2.059 1.533 3.581a.16.16 0 0 1 .039.151l-.136.542c-.054.68-.245 2.337-.768 2.474-.184.049-.465.022-.815-.01-.598-.055-1.411-.129-1.775.219a.155.155 0 0 1-.11.045z"></path><path d="M149.648 94.476a.162.162 0 0 1-.088-.298c.6-.385 1.242-.16 1.27-.15a.16.16 0 0 1 .097.206.163.163 0 0 1-.207.098c-.004-.003-.523-.18-.985.117a.151.151 0 0 1-.087.027z"></path><path d="M178.583 145.363H20.161c-.089 0-.161-.072-.161-.162s.072-.162.161-.162h158.422c.089 0 .161.072.161.162s-.072.162-.161.162z"></path><path d="M129.951 105.022a1.926 1.926 0 0 1-1.581-.832.162.162 0 0 1 .043-.225.161.161 0 0 1 .225.042c.184.27.445.474.752.59a1.601 1.601 0 0 0 2.06-.931c.151-.4.137-.834-.039-1.223a1.584 1.584 0 0 0-.892-.837 1.589 1.589 0 0 0-1.536.225.16.16 0 1 1-.195-.256 1.902 1.902 0 0 1 1.845-.271c.48.181.861.539 1.073 1.007.211.468.228.99.047 1.47a1.93 1.93 0 0 1-1.802 1.241z"></path><path d="M130.085 104.163a.161.161 0 0 1-.13-.066l-.855-1.174a.163.163 0 0 1 .085-.251l1.456-.421a.16.16 0 0 1 .2.11.162.162 0 0 1-.111.2l-1.235.357.719.987a.162.162 0 0 1-.035.226.155.155 0 0 1-.094.032z"></path><path d="M143.609 145.363a.162.162 0 0 1-.161-.146c-.005-.057-.553-5.751-.149-11.818.19-2.857.217-6.579.081-11.379a.161.161 0 1 1 .322-.009c.136 4.81.11 8.542-.081 11.41-.402 6.039.144 11.708.149 11.765a.162.162 0 0 1-.146.177h-.015z"></path><path d="M127.515 107.649c-.971-.089-1.665-.447-2.081-1.063-.758-1.124-.302-2.684-.283-2.75l1.27-5.19a.157.157 0 0 1 .195-.118.16.16 0 0 1 .118.195l-1.272 5.198c-.007.023-.433 1.491.24 2.486.358.532.974.841 1.827.92a.162.162 0 0 1 .146.176.16.16 0 0 1-.16.146z"></path><path d="M125.148 103.137a.636.636 0 0 1-.171-.024l-.119-.034a.636.636 0 0 1-.439-.783l.835-2.98a.637.637 0 0 1 .783-.44l.119.033a.632.632 0 0 1 .381.3c.083.149.105.32.059.483l-.836 2.98a.635.635 0 0 1-.612.465zm-.083-.335a.317.317 0 0 0 .385-.216l.836-2.98a.306.306 0 0 0-.03-.236.305.305 0 0 0-.187-.148l-.119-.033a.314.314 0 0 0-.385.217l-.835 2.979a.312.312 0 0 0 .216.384l.119.033z"></path><path d="M139.87 123.682c-.877 0-1.807-.158-2.921-.496-.821-.249-1.745-.6-2.376-1.322-.767-.878-1.035-2.199-.795-3.925.059-.425.14-.854.219-1.267.134-.71.273-1.445.3-2.173.015-.397.002-.904-.24-1.312-.416-.702-1.381-.982-2.069-1.133-.163-.036-.328-.068-.492-.1-.496-.098-1.01-.198-1.493-.395-1.494-.611-2.605-2.297-2.642-4.01-.026-1.242 1.027-2.275 2.02-2.829a.163.163 0 0 1 .22.063.163.163 0 0 1-.062.22c-.912.507-1.878 1.441-1.856 2.539.034 1.589 1.061 3.153 2.442 3.717.454.185.951.283 1.433.377.167.033.332.065.497.101.748.163 1.797.473 2.279 1.283.284.481.301 1.048.284 1.489-.027.752-.169 1.499-.306 2.22a25.75 25.75 0 0 0-.216 1.252c-.226 1.629.015 2.863.719 3.668.577.66 1.449.99 2.227 1.226 1.082.328 1.983.482 2.827.482l.065-.001c2.829-.026 4.953-2.251 4.939-5.175-.015-3.119-1.576-6.182-3.881-7.622-.356-.223-.745-.425-1.121-.621-.954-.497-1.94-1.011-2.556-1.918-1.013-1.491-.584-3.134-.169-4.723.149-.574.291-1.117.368-1.653.676-4.727-1.608-5.942-3.03-6.245-.359-.077-2.213.142-3.369.308a.164.164 0 0 1-.084-.011c-2.206-.915-3.356-.316-3.526-.215-.147.225-1.18 1.881-.726 3.499.285 1.018 1.1 1.829 2.424 2.413a.161.161 0 1 1-.13.296c-1.418-.625-2.294-1.507-2.606-2.623-.525-1.879.737-3.717.791-3.795.089-.076 1.32-.928 3.855.11.454-.065 2.921-.41 3.439-.298 1.532.327 3.996 1.619 3.282 6.607-.08.554-.23 1.131-.376 1.688-.397 1.52-.808 3.091.124 4.46.57.84 1.477 1.313 2.438 1.813.381.199.776.405 1.143.634 2.396 1.497 4.017 4.67 4.032 7.895.015 3.107-2.245 5.471-5.259 5.5-.022.002-.045.002-.066.002z"></path><path d="M103.919 119.82h-4.247a2.922 2.922 0 0 1-2.809-2.139l-6.259-22.642a2.895 2.895 0 0 1 .49-2.545 2.896 2.896 0 0 1 2.321-1.151h34.911c1.306 0 2.461.88 2.809 2.14l.541 1.925a.161.161 0 0 1-.112.199.164.164 0 0 1-.199-.112l-.541-1.926a2.599 2.599 0 0 0-2.498-1.903H93.415c-.816 0-1.569.373-2.063 1.023a2.573 2.573 0 0 0-.436 2.262l6.259 22.642a2.599 2.599 0 0 0 2.498 1.902h4.247a.163.163 0 0 1-.001.325z"></path><path d="M121.136 119.82h-5.801c-.089 0-.161-.072-.161-.162s.072-.162.161-.162h5.801c.089 0 .161.072.161.162s-.072.162-.161.162z"></path><path d="M128.628 95.157a.162.162 0 0 1-.156-.118c-.18-.649-.735-1.036-1.487-1.036h-1.823c-.089 0-.161-.072-.161-.162s.072-.162.161-.162h1.823c.905 0 1.578.476 1.798 1.273a.161.161 0 0 1-.155.205z"></path><path d="M103.395 117.484h-1.98a2.444 2.444 0 0 1-2.348-1.788l-5.586-20.209a1.417 1.417 0 0 1 .239-1.245 1.419 1.419 0 0 1 1.136-.564h24.733c.089 0 .161.072.161.162s-.072.162-.161.162H94.856c-.347 0-.668.159-.879.436-.21.277-.278.628-.185.963l5.585 20.209a2.12 2.12 0 0 0 2.037 1.551h1.98c.089 0 .161.072.161.162a.16.16 0 0 1-.16.161z"></path><path d="M122.086 117.484h-7.602a.162.162 0 0 1 0-.324h7.602a.162.162 0 0 1 0 .324z"></path><path d="M108.74 98.124h-9.367a.162.162 0 0 1 0-.324h9.367c.089 0 .161.072.161.162 0 .09-.072.162-.161.162z"></path><path d="M109.342 100.166h-3.712a.162.162 0 0 1 0-.324h3.712a.162.162 0 0 1 0 .324z"></path><path d="M103.81 100.166h-3.836a.162.162 0 0 1 0-.324h3.836a.162.162 0 0 1 0 .324z"></path><path d="M125.181 98.124h-9.369a.162.162 0 0 1 0-.324h9.369a.162.162 0 0 1 0 .324z"></path><path d="M125.229 100.166h-8.814a.162.162 0 0 1 0-.324h8.814a.162.162 0 0 1 0 .324z"></path><path d="M110.921 104.268h-3.813a.162.162 0 0 1 0-.324h3.813c.089 0 .161.072.161.162 0 .09-.072.162-.161.162z"></path><path d="M104.901 104.268h-3.347a.162.162 0 0 1 0-.324h3.347c.089 0 .161.072.161.162 0 .09-.072.162-.161.162z"></path><path d="M109.683 106.309h-1.835a.162.162 0 0 1 0-.324h1.835c.089 0 .161.072.161.162 0 .09-.072.162-.161.162z"></path><path d="M102.479 106.309h-.323a.162.162 0 0 1 0-.324h.323a.162.162 0 0 1 0 .324z"></path><path d="M125.181 104.268h-7.186a.162.162 0 0 1 0-.324h7.186a.162.162 0 0 1 0 .324z"></path><path d="M125.349 106.309h-6.753a.162.162 0 0 1 0-.324h6.753c.089 0 .161.072.161.162a.16.16 0 0 1-.161.162z"></path><path d="M113.067 110.412h-.812a.162.162 0 0 1 0-.324h.812a.162.162 0 0 1 0 .324z"></path><path d="M113.668 112.453h-.741a.162.162 0 0 1 0-.324h.741a.162.162 0 0 1 0 .324z"></path><path d="M128.504 110.412h-8.365a.162.162 0 0 1 0-.324h8.365a.162.162 0 0 1 0 .324z"></path><path d="M125.126 112.453h-4.386a.162.162 0 0 1 0-.324h4.386a.162.162 0 0 1 0 .324z"></path><path d="M44.122 96.042c-1.896-.483-2.544-2.464-2.36-4.103.183-1.632 1.269-3.561 3.726-3.63 1.232-.032 2.175.321 2.791 1.055 1.2 1.433.733 3.773.712 3.872a.166.166 0 0 1-.191.126.161.161 0 0 1-.125-.191c.004-.022.455-2.288-.645-3.6-.549-.654-1.386-.976-2.533-.938-2.25.063-3.245 1.84-3.414 3.343-.169 1.504.41 3.318 2.079 3.749a.161.161 0 0 1-.04.317z"></path><path d="M33.891 112.768a.162.162 0 0 1-.091-.296c4.228-2.875 9.17-5.168 14.69-6.814a.158.158 0 0 1 .2.109.162.162 0 0 1-.108.201c-5.487 1.636-10.4 3.915-14.6 6.771a.154.154 0 0 1-.091.029z"></path><path d="M55.957 104.23a.16.16 0 0 1-.159-.135.161.161 0 0 1 .131-.186 54.213 54.213 0 0 1 2.598-.377c.083-.013.169.053.18.141a.162.162 0 0 1-.14.18 50.82 50.82 0 0 0-2.61.377z"></path><path d="M33.972 89.12a.161.161 0 0 1-.091-.295c4.419-3.019 9.679-5.398 15.634-7.07.206-.057.412-.115.617-.17a.162.162 0 0 1 .083.313 34.85 34.85 0 0 0-.612.169c-5.922 1.662-11.15 4.026-15.54 7.025a.158.158 0 0 1-.091.028z"></path><path d="M55.081 80.795a.162.162 0 0 1-.029-.32 55.454 55.454 0 0 1 3.475-.514c.103-.008.169.054.178.142a.16.16 0 0 1-.141.179 54.74 54.74 0 0 0-3.456.511.213.213 0 0 1-.027.002z"></path><path d="M74.647 112.783a.163.163 0 0 1-.161-.166l.168-6.168a.16.16 0 0 1 .068-.128 38.956 38.956 0 0 0 1.696-1.266l.102-23.227c0-.054.027-.105.073-.135a.153.153 0 0 1 .152-.013s1.084.473 1.44.64c3.418 1.602 5.668 4.029 6.506 7.019 1.391 4.96-1.576 10.8-7.983 15.898a.165.165 0 0 1-.065.052 38.61 38.61 0 0 1-1.67 1.25l-.165 6.087a.161.161 0 0 1-.161.157zm2.193-30.708-.099 22.721c6.14-4.967 8.975-10.599 7.638-15.369-.812-2.897-3.001-5.254-6.333-6.814a64.01 64.01 0 0 0-1.206-.538z"></path><path d="M74.164 130.658a.163.163 0 0 1-.161-.166l.483-17.876a.16.16 0 0 1 .161-.157.163.163 0 0 1 .161.166l-.483 17.875a.16.16 0 0 1-.161.158z"></path><path d="M74.164 130.658a.161.161 0 0 1-.091-.295c6.455-4.376 10.325-9.609 10.616-14.355l.009-.204-.002-6.429a.161.161 0 1 1 .322 0l.002 6.436-.009.214c-.298 4.851-4.218 10.173-10.757 14.607a.174.174 0 0 1-.09.026z"></path><path d="M84.856 105.784a.161.161 0 0 1-.161-.162l-.006-14.352a.161.161 0 1 1 .322 0l.005 14.352a.16.16 0 0 1-.16.162z"></path><path d="M58.547 137.725a.162.162 0 0 1-.161-.164l.066-5.144c.001-.089.067-.173.163-.16.089.001.16.075.159.164l-.066 5.144a.16.16 0 0 1-.161.16z"></path><path d="M58.72 124.171a.162.162 0 0 1-.161-.164l.129-10.126a.161.161 0 0 1 .161-.16c.085 0 .162.074.161.164l-.129 10.126a.16.16 0 0 1-.161.16z"></path><path d="M43.68 116.26c-5.249 0-9.993-.879-13.611-2.625a.163.163 0 0 1-.076-.216.161.161 0 0 1 .216-.076c6.799 3.282 17.641 3.463 28.293.471l.301-.086a.159.159 0 0 1 .2.111.162.162 0 0 1-.111.2l-.302.087c-5.074 1.425-10.195 2.134-14.91 2.134z"></path><path d="M25.653 110.397a.158.158 0 0 1-.12-.054c-1.018-1.14-1.73-2.419-2.118-3.8a9.229 9.229 0 0 1-.338-2.459.16.16 0 1 1 .322-.001 8.87 8.87 0 0 0 .328 2.372c.374 1.334 1.063 2.569 2.048 3.673a.161.161 0 0 1-.122.269z"></path><path d="M43.682 123.079c-1.92 0-3.773-.12-5.547-.361a.161.161 0 0 1-.138-.182c.012-.088.08-.156.182-.138 3.521.479 7.359.478 11.411-.001a.162.162 0 0 1 .038.321 50.759 50.759 0 0 1-5.946.361z"></path><path d="M43.682 125.839c-2.027 0-3.979-.135-5.843-.404a.162.162 0 0 1-.137-.183c.013-.088.101-.144.183-.137 3.6.52 7.536.533 11.704.041a.163.163 0 0 1 .179.141.162.162 0 0 1-.141.18 50.748 50.748 0 0 1-5.945.362z"></path><path d="M43.692 139.875c-2.845 0-5.555-.264-8.05-.797-6.667-1.424-11.01-4.6-12.227-8.942a9.157 9.157 0 0 1-.335-2.221l-.003-.33v-15.842a.161.161 0 1 1 .322 0l.003 16.166c.021.726.13 1.447.324 2.14 1.183 4.221 5.439 7.315 11.984 8.713 6.584 1.407 14.677.924 22.793-1.354a.165.165 0 0 1 .199.112.163.163 0 0 1-.112.2c-5.094 1.43-10.182 2.155-14.898 2.155z"></path><path d="M23.237 111.905a.161.161 0 0 1-.161-.162v-7.37a.161.161 0 1 1 .322 0v7.37a.16.16 0 0 1-.161.162z"></path><path d="M33.972 112.768a.161.161 0 0 1-.161-.162V88.959a.161.161 0 1 1 .322 0v23.648a.16.16 0 0 1-.161.161z"></path><path d="M58.547 103.854a.161.161 0 0 1-.161-.162V80.12a.161.161 0 1 1 .322 0v23.572c0 .09-.072.162-.161.162z"></path><path d="M77.125 115.847a.158.158 0 0 1-.127-.063.161.161 0 0 1 .028-.227c1.336-1.038 3.288-2.686 5.002-4.637a.16.16 0 0 1 .228-.014.162.162 0 0 1 .015.228c-1.731 1.97-3.7 3.632-5.048 4.679a.154.154 0 0 1-.098.034z"></path><path d="M64.058 135.213c-.056 0-.113-.001-.169-.003a.162.162 0 0 1-.156-.167c.002-.089.077-.151.167-.156l.159.003c5.751 0 8.916-10.856 10.298-17.369a.157.157 0 0 1 .192-.124.161.161 0 0 1 .124.191c-1.402 6.61-4.636 17.625-10.615 17.625z"></path><path d="M62.384 118.084a.161.161 0 0 1-.147-.229l3.734-8.07a.162.162 0 0 1 .294.136l-3.734 8.07a.164.164 0 0 1-.147.093z"></path><path d="M72.877 113.481a.161.161 0 0 1-.083-.3 4.646 4.646 0 0 0 1.726-1.787.164.164 0 0 1 .219-.065c.079.042.107.14.066.219a4.984 4.984 0 0 1-1.844 1.91.161.161 0 0 1-.084.023z"></path><path d="M50.694 125.437a.162.162 0 0 1-.013-.323c.101-.008 10.113-.858 14.378-3.214a.161.161 0 1 1 .155.283c-4.325 2.389-14.405 3.245-14.507 3.253l-.013.001z"></path><path d="M50.694 133.616a.162.162 0 0 1-.013-.323c.101-.008 10.113-.858 14.378-3.214a.161.161 0 1 1 .155.283c-4.325 2.389-14.405 3.245-14.507 3.253l-.013.001z"></path><path d="M50.694 133.643a.161.161 0 0 1-.161-.162v-8.206a.161.161 0 1 1 .322 0v8.206a.162.162 0 0 1-.161.162z"></path><path d="M65.136 130.397a.161.161 0 0 1-.161-.162v-8.206a.161.161 0 1 1 .322 0v8.206a.162.162 0 0 1-.161.162z"></path><path d="M149.634 91.434a.162.162 0 0 1-.145-.09c-.109-.222-1.067-2.182-1.034-2.714.008-.132.228-3.244 2.982-4.231 2.3-.823 4.163.242 4.543.485.461-.137 2.804-.725 3.705 1.285.962 2.141.283 4.659.253 4.765a.16.16 0 0 1-.198.112.161.161 0 0 1-.113-.199c.007-.025.677-2.513-.235-4.546-.875-1.95-3.279-1.124-3.383-1.088a.165.165 0 0 1-.147-.02c-.019-.013-1.948-1.34-4.316-.49-2.556.916-2.762 3.823-2.77 3.946-.021.336.604 1.744 1.001 2.552a.161.161 0 0 1-.143.233z"></path><path d="M29.962 107.103a.168.168 0 0 1-.078-.02.163.163 0 0 1-.083-.142v-7.07c0-.055.027-.106.073-.136 1.223-.785 3.843-1.876 3.955-1.922a.16.16 0 1 1 .122.298c-.026.011-2.599 1.082-3.829 1.849v6.692c1.296-.766 3.602-1.726 3.706-1.769a.16.16 0 1 1 .122.298c-.026.011-2.705 1.127-3.903 1.896a.147.147 0 0 1-.085.026z"></path><path d="M68.555 90.024a.161.161 0 0 1-.161-.162v-5.985c0-.044.018-.087.049-.117.032-.03.079-.056.119-.044 5.588.285 8.014 1.798 8.115 1.862a.16.16 0 0 1 .049.223.161.161 0 0 1-.222.05c-.024-.015-2.418-1.502-7.789-1.803v5.814a.16.16 0 0 1-.16.162z"></path><path d="M76.592 91.861a.162.162 0 0 1-.087-.025c-.024-.015-2.468-1.533-7.957-1.812a.161.161 0 0 1 .008-.322c5.595.285 8.022 1.798 8.123 1.863a.16.16 0 0 1 .049.223.164.164 0 0 1-.136.073z"></path><path d="M152.132 94.552c-.301-.009-.64-.043-.904-.229a.909.909 0 0 1-.392-.623c-.048-.338.09-.749.369-1.1.25-.315.503-.66.656-1.053a1.477 1.477 0 0 0-.139-1.386.16.16 0 0 1 .031-.226.164.164 0 0 1 .226.03c.023.03.558.742.183 1.7-.169.434-.438.803-.704 1.137-.225.283-.337.602-.301.854a.576.576 0 0 0 .258.404c.194.137.474.163.722.17.09.003.16.077.157.167a.163.163 0 0 1-.162.155z"></path><path d="M99.029 86.354c-6.943 0-13.087-4.914-14.61-11.683a.162.162 0 0 1 .123-.194.165.165 0 0 1 .193.122c1.49 6.623 7.502 11.431 14.294 11.431 8.079 0 14.653-6.577 14.653-14.662s-6.574-14.663-14.653-14.663c-5.18 0-9.874 2.653-12.554 7.097a.16.16 0 0 1-.221.055.16.16 0 0 1-.055-.221c2.739-4.542 7.536-7.254 12.83-7.254 8.258 0 14.975 6.723 14.975 14.986-.001 8.263-6.718 14.986-14.975 14.986z"></path><path d="M96.251 78.39c-.514 0-.996-.2-1.359-.564l-4.959-4.963a1.904 1.904 0 0 1-.563-1.357 1.905 1.905 0 0 1 .563-1.361l.678-.679a1.905 1.905 0 0 1 1.359-.564c.514 0 .996.2 1.359.564l2.924 2.926 8.17-7.933a1.908 1.908 0 0 1 1.357-.561c.513 0 .996.2 1.359.563l.679.68a1.93 1.93 0 0 1 0 2.719l-10.21 9.969a1.908 1.908 0 0 1-1.357.561zm-4.28-9.165c-.427 0-.828.167-1.131.469l-.678.679a1.595 1.595 0 0 0 0 2.262l4.959 4.964c.302.302.703.468 1.131.468a1.59 1.59 0 0 0 1.131-.469l10.21-9.968c.62-.622.62-1.637-.001-2.261l-.679-.68a1.59 1.59 0 0 0-1.131-.468 1.59 1.59 0 0 0-1.131.468l-8.286 8.046a.162.162 0 0 1-.227-.002l-3.036-3.039a1.592 1.592 0 0 0-1.131-.469z"></path><path d="M44.684 80.909a.163.163 0 0 1-.157-.123c-.008-.029-.176-.718-.236-1.875a.161.161 0 0 1 .152-.169.163.163 0 0 1 .17.153c.058 1.123.225 1.806.227 1.813a.161.161 0 0 1-.156.201zm-.212-3.704c-.1-.007-.168-.084-.161-.173.043-.623.122-1.251.234-1.863a.168.168 0 0 1 .188-.13.16.16 0 0 1 .129.188 16.461 16.461 0 0 0-.23 1.827.16.16 0 0 1-.16.151zm.669-3.653c-.131-.032-.181-.123-.154-.208.178-.595.393-1.189.638-1.765a.162.162 0 0 1 .213-.086c.082.035.119.13.085.212a16.747 16.747 0 0 0-.627 1.732.162.162 0 0 1-.155.115zm1.447-3.417a.175.175 0 0 1-.079-.02.162.162 0 0 1-.062-.22c.299-.538.633-1.073.993-1.59a.162.162 0 0 1 .265.185 18.234 18.234 0 0 0-.975 1.562.163.163 0 0 1-.142.083zm2.117-3.048a.162.162 0 0 1-.123-.266c.399-.471.827-.933 1.272-1.373a.16.16 0 0 1 .229.002.164.164 0 0 1-.001.229c-.439.434-.861.889-1.254 1.352a.165.165 0 0 1-.123.056zm2.636-2.616a.165.165 0 0 1-.124-.057.163.163 0 0 1 .02-.228c.472-.399.969-.786 1.474-1.152a.162.162 0 0 1 .189.262 25.64 25.64 0 0 0-1.454 1.137.164.164 0 0 1-.105.038zm2.999-2.187a.163.163 0 0 1-.087-.299 32.667 32.667 0 0 1 1.606-.951.161.161 0 1 1 .155.283c-.544.302-1.079.619-1.589.941a.149.149 0 0 1-.085.026zm29.794-.211a.152.152 0 0 1-.091-.029 22.75 22.75 0 0 0-1.567-.98.16.16 0 1 1 .16-.28c.564.322 1.099.657 1.589.994a.161.161 0 0 1-.091.295zm-26.547-1.592a.163.163 0 0 1-.146-.091.162.162 0 0 1 .076-.216 30.273 30.273 0 0 1 1.704-.766.16.16 0 0 1 .21.087.16.16 0 0 1-.088.211c-.561.233-1.128.488-1.686.759a.17.17 0 0 1-.07.016zm23.321-.259a.159.159 0 0 1-.07-.016 26.15 26.15 0 0 0-1.692-.742.162.162 0 0 1-.091-.21.162.162 0 0 1 .209-.09c.581.231 1.157.483 1.713.751.08.039.114.135.076.216a.16.16 0 0 1-.145.091zM61.021 59.06a.16.16 0 0 1-.152-.11.16.16 0 0 1 .1-.205 28.88 28.88 0 0 1 1.789-.547.161.161 0 0 1 .197.115.161.161 0 0 1-.114.198c-.582.156-1.177.338-1.767.54a.144.144 0 0 1-.053.009zm16.435-.211a32.396 32.396 0 0 0-1.827-.509.161.161 0 0 1-.118-.195.158.158 0 0 1 .195-.118c.603.147 1.209.318 1.8.507a.162.162 0 0 1 .104.203.164.164 0 0 1-.154.112zm-12.849-.754a.163.163 0 0 1-.159-.13.163.163 0 0 1 .128-.19c.607-.12 1.228-.219 1.846-.297a.162.162 0 0 1 .18.141.161.161 0 0 1-.14.18 26.427 26.427 0 0 0-1.855.296zm9.24-.127a26.976 26.976 0 0 0-1.857-.246.162.162 0 0 1-.146-.176.162.162 0 0 1 .176-.145c.62.059 1.244.142 1.854.246a.16.16 0 0 1 .131.187.16.16 0 0 1-.158.134zm-5.554-.329a.161.161 0 0 1-.008-.322c.62-.032 1.255-.04 1.868-.026.09.002.16.076.158.166a.16.16 0 0 1-.161.158 25.947 25.947 0 0 0-1.849.025l-.008-.001z"></path><path d="M170.584 101.755a.162.162 0 0 1-.129-.258c.003-.004.357-.484.848-1.336a.16.16 0 0 1 .221-.059.161.161 0 0 1 .059.22 15.052 15.052 0 0 1-.87 1.368.162.162 0 0 1-.129.065zm1.724-3a.162.162 0 0 1-.146-.231c.265-.555.513-1.125.736-1.696a.16.16 0 0 1 .209-.091.16.16 0 0 1 .091.209 26.249 26.249 0 0 1-.745 1.717.158.158 0 0 1-.145.092zm1.355-3.463c-.133-.034-.181-.125-.154-.209.183-.592.344-1.192.479-1.784a.166.166 0 0 1 .194-.122c.087.02.141.106.122.193-.137.601-.3 1.209-.485 1.809a.166.166 0 0 1-.156.113zm.824-3.625c-.111-.014-.172-.097-.16-.185.089-.617.152-1.235.189-1.836.006-.089.077-.167.171-.151a.161.161 0 0 1 .151.171c-.038.61-.102 1.237-.192 1.863a.162.162 0 0 1-.159.138zm.225-3.709a.16.16 0 0 1-.161-.158 21.417 21.417 0 0 0-.124-1.841.162.162 0 0 1 .142-.179.165.165 0 0 1 .178.143c.069.619.112 1.248.126 1.869a.163.163 0 0 1-.158.166h-.003zm-.411-3.691a.161.161 0 0 1-.158-.129c-.123-.6-.272-1.203-.444-1.792a.16.16 0 1 1 .308-.091c.175.597.328 1.209.45 1.818a.16.16 0 0 1-.126.191c-.009.001-.019.003-.03.003zm-31.309-2.952c-.4 0-.787-.127-1.152-.378a.162.162 0 0 1-.043-.225.164.164 0 0 1 .225-.042c.507.348 1.057.414 1.613.19a.16.16 0 0 1 .21.089.162.162 0 0 1-.09.21c-.253.104-.51.156-.763.156zm30.261-.613a.161.161 0 0 1-.15-.103 22.88 22.88 0 0 0-.738-1.691.162.162 0 0 1 .291-.141c.276.57.528 1.147.747 1.715a.16.16 0 0 1-.15.22zm-28.139-.7a.157.157 0 0 1-.101-.036.16.16 0 0 1-.025-.227c.366-.457.68-.98.936-1.554a.162.162 0 0 1 .296.131 7.423 7.423 0 0 1-.98 1.624.158.158 0 0 1-.126.062zm-4.324-.478a.162.162 0 0 1-.146-.092 6.695 6.695 0 0 1-.546-1.821.162.162 0 0 1 .135-.184c.103-.016.171.047.185.135.096.625.275 1.224.517 1.731a.161.161 0 0 1-.145.231zm30.845-2.166a.158.158 0 0 1-.139-.081 25.71 25.71 0 0 0-.987-1.562.163.163 0 0 1 .043-.225.163.163 0 0 1 .225.043c.358.525.694 1.057.998 1.582a.162.162 0 0 1-.14.243zm-24.993-.712c-.12-.023-.176-.108-.158-.195a10.67 10.67 0 0 0 .221-1.816.166.166 0 0 1 .166-.156c.09.003.159.078.156.168-.023.639-.1 1.269-.228 1.871a.161.161 0 0 1-.157.128zm-6.439-.752c-.103-.009-.169-.088-.161-.177a7.63 7.63 0 0 1 .403-1.852.162.162 0 1 1 .305.109 7.274 7.274 0 0 0-.386 1.773.162.162 0 0 1-.161.147zm29.336-1.602a.161.161 0 0 1-.126-.061 22.147 22.147 0 0 0-1.213-1.39.161.161 0 1 1 .234-.223c.422.444.836.918 1.23 1.41a.16.16 0 0 1-.025.227.153.153 0 0 1-.1.037zm-22.754-1.347a.161.161 0 0 1-.16-.143 13.268 13.268 0 0 0-.346-1.802.16.16 0 0 1 .114-.197.157.157 0 0 1 .197.115c.163.614.283 1.236.355 1.846a.162.162 0 0 1-.141.18l-.019.001zm-5.336-.51a.16.16 0 0 1-.131-.255 6.837 6.837 0 0 1 1.304-1.379.16.16 0 0 1 .227.025.16.16 0 0 1-.025.227 6.519 6.519 0 0 0-1.242 1.314.166.166 0 0 1-.133.068zm25.525-.827a.16.16 0 0 1-.106-.04 17.52 17.52 0 0 0-1.451-1.135.163.163 0 0 1-.039-.225.163.163 0 0 1 .226-.04 18.5 18.5 0 0 1 1.477 1.155.162.162 0 0 1 .015.228.159.159 0 0 1-.122.057zM144.3 70.114a.159.159 0 0 1-.143-.088.163.163 0 0 1 .07-.218c.459-.234.935-.458 1.417-.669a15.409 15.409 0 0 0-.749-1.535.163.163 0 0 1 .062-.22.16.16 0 0 1 .22.062c.285.512.541 1.038.764 1.567a.159.159 0 0 1 .194.092.162.162 0 0 1-.087.212c-.571.242-1.134.504-1.674.78a.178.178 0 0 1-.074.017zm19.636-.635a.168.168 0 0 1-.078-.02 16.436 16.436 0 0 0-1.658-.8.161.161 0 1 1 .124-.298c.577.24 1.146.515 1.688.815a.161.161 0 0 1 .063.22.157.157 0 0 1-.139.083zm-16.214-.812a.16.16 0 0 1-.152-.11.16.16 0 0 1 .1-.205 26.503 26.503 0 0 1 1.79-.543.157.157 0 0 1 .197.115.16.16 0 0 1-.114.197c-.587.155-1.182.336-1.768.537a.169.169 0 0 1-.053.009zm12.788-.613a19.544 19.544 0 0 0-1.836-.428.16.16 0 0 1-.13-.187.156.156 0 0 1 .187-.13c.62.111 1.235.256 1.824.429a.161.161 0 0 1-.045.316zm-9.199-.336a.16.16 0 0 1-.159-.132.163.163 0 0 1 .129-.189c.62-.116 1.242-.206 1.85-.269a.162.162 0 0 1 .177.144.162.162 0 0 1-.145.177 22.777 22.777 0 0 0-1.852.269zm5.55-.325a19.904 19.904 0 0 0-1.855-.055c-.079-.009-.162-.07-.163-.16a.161.161 0 0 1 .159-.164c.621-.009 1.256.009 1.871.055a.161.161 0 0 1 .149.173.162.162 0 0 1-.161.151zm-12.822-1.275a.16.16 0 0 1-.131-.068 17.906 17.906 0 0 0-1.147-1.44.161.161 0 1 1 .241-.214c.418.473.812.966 1.169 1.466a.162.162 0 0 1-.132.256zm-2.457-2.783a.16.16 0 0 1-.11-.043c-.44-.411-.913-.812-1.404-1.194a.161.161 0 0 1-.028-.227.161.161 0 0 1 .226-.029c.5.388.978.797 1.425 1.213a.162.162 0 0 1 .009.229.16.16 0 0 1-.118.051zm-2.926-2.285a.17.17 0 0 1-.089-.026 24.945 24.945 0 0 0-1.58-.953.161.161 0 1 1 .155-.283c.554.307 1.093.632 1.602.965a.161.161 0 0 1 .046.224.157.157 0 0 1-.134.073zm-22.844-1.721a.161.161 0 0 1-.095-.292c.023-.017.589-.43 1.649-.926a.161.161 0 1 1 .136.293c-1.028.481-1.589.89-1.594.894a.164.164 0 0 1-.096.031zm19.597-.082a.172.172 0 0 1-.069-.015 29.332 29.332 0 0 0-1.696-.734.16.16 0 1 1 .118-.3c.571.225 1.148.475 1.716.742.08.038.115.134.077.215a.162.162 0 0 1-.146.092zm-3.456-1.362a30.057 30.057 0 0 0-1.828-.501.161.161 0 0 1-.119-.195.166.166 0 0 1 .194-.12c.597.141 1.203.31 1.802.5a.161.161 0 0 1-.049.316zm-12.793-.154a.161.161 0 0 1-.153-.111.163.163 0 0 1 .102-.205 18.554 18.554 0 0 1 1.807-.501.159.159 0 0 1 .193.123.161.161 0 0 1-.123.193c-.604.134-1.201.3-1.774.492a.14.14 0 0 1-.052.009zm9.179-.699a22.257 22.257 0 0 0-1.857-.204.161.161 0 0 1-.15-.172.162.162 0 0 1 .161-.151c.625.041 1.25.11 1.87.206a.162.162 0 0 1-.024.321zm-5.557-.109a.162.162 0 0 1-.02-.323 19.849 19.849 0 0 1 1.869-.134.162.162 0 0 1 .008.323 19.173 19.173 0 0 0-1.857.134z"></path><path d="M155.955 84.999c-.127-.029-.179-.116-.157-.202.007-.025.144-.619-.582-1.24a.162.162 0 0 1 .21-.245c.887.759.692 1.536.684 1.568a.16.16 0 0 1-.155.119z"></path><path d="M156.351 85.116c-.1-.007-.166-.083-.161-.172.001-.025.043-.624.358-1.055a.162.162 0 0 1 .261.191c-.26.354-.297.879-.297.885a.162.162 0 0 1-.161.151z"></path><path d="M164.54 137.45a.163.163 0 0 1-.064-.013l-14.337-6.156a.16.16 0 0 1-.084-.212l2.105-4.909a.161.161 0 0 1 .211-.085.16.16 0 0 1 .084.212l-2.04 4.76 14.04 6.029.129-.3a.16.16 0 0 1 .211-.084.16.16 0 0 1 .084.213l-.193.448a.157.157 0 0 1-.146.097z"></path><path d="M169.184 126.623a.16.16 0 0 1-.148-.225l4.14-9.659-14.04-6.03-4.376 10.204a.16.16 0 1 1-.295-.127l4.439-10.352a.16.16 0 0 1 .211-.085l14.337 6.157a.16.16 0 0 1 .084.212l-4.205 9.807a.16.16 0 0 1-.147.098z"></path><path d="M170.508 145.363c-.101-.007-.168-.084-.161-.173.167-2.287.001-5.894 0-5.931a.162.162 0 0 1 .153-.169.163.163 0 0 1 .169.153c.002.037.168 3.663 0 5.969a.161.161 0 0 1-.161.151z"></path><path d="M105.781 137.559h-5.318a.164.164 0 0 1-.156-.118l-1.939-6.991a.165.165 0 0 1 .027-.141.16.16 0 0 1 .128-.064h7.469c.072 0 .136.049.156.118l1.347 4.851a.161.161 0 1 1-.311.087l-1.314-4.733h-7.134l1.849 6.667h5.195c.089 0 .161.072.161.162s-.072.162-.16.162z"></path><path d="M35.796 120.897v5.349s-3.397.04-5.656-1.838v-5.538c0-.001 1.617 1.578 5.656 2.027z" data-color="3" class="background"></path><path d="M77.242 119.108a.161.161 0 0 1-.095-.292 39.518 39.518 0 0 0 3.056-2.465.16.16 0 0 1 .228.013.163.163 0 0 1-.013.229 39.806 39.806 0 0 1-3.08 2.485.17.17 0 0 1-.096.03z"></path><path d="M122.399 133.272a.162.162 0 0 1-.157-.124c-.513-2.144-2.677-3.584-5.387-3.584-2.428 0-4.612 1.382-5.315 3.36a.164.164 0 0 1-.206.098.163.163 0 0 1-.099-.207c.759-2.138 3.017-3.575 5.619-3.575 2.863 0 5.154 1.54 5.701 3.832a.162.162 0 0 1-.156.2z"></path></g></g>
</svg>
</g></svg></svg>